<?xml version="1.0" encoding="UTF-8"?>
<svg width="1551px" height="760px" viewBox="0 0 1551 760" version="1.1" xmlns="http://www.w3.org/2000/svg" xmlns:xlink="http://www.w3.org/1999/xlink">
    <!-- Generator: Sketch 45.1 (43504) - http://www.bohemiancoding.com/sketch -->
    <title>Group 3</title>
    <desc>Created with Sketch.</desc>
    <defs>
        <path d="M1081,439.5 L1274.5,439.5" id="path-1"></path>
        <path d="M1270,466 L1085,466" id="path-2"></path>
        <rect id="path-3" x="695" y="246" width="178" height="358"></rect>
    </defs>
    <g id="Page-1" stroke="none" stroke-width="1" fill="none" fill-rule="evenodd">
        <g id="Group-3" transform="translate(0.000000, -8.000000)">
            <g id="Group-2" transform="translate(0.000000, 288.000000)">
                <g id="Group" transform="translate(0.000000, 83.000000)" stroke="#979797">
                    <rect id="Rectangle" x="48.5" y="0.5" width="257" height="144"></rect>
                    <rect id="Rectangle" x="56.5" y="9.5" width="240.802012" height="126.300999"></rect>
                    <path d="M48.2005572,145.5 L2.05121474,189.621094 L262.918164,189.621094 L304.835304,145.5 L48.2005572,145.5 Z" id="Rectangle"></path>
                </g>
                <text id="前端" font-family="PingFangSC-Light, PingFang SC" font-size="36" font-weight="300" fill="#000000">
                    <tspan x="153.5" y="38">前端</tspan>
                </text>
            </g>
            <g id="Line-2" stroke-linecap="square" stroke="#979797">
                <use stroke-width="2" xlink:href="#path-1"></use>
                <use stroke-width="1" xlink:href="#path-1"></use>
            </g>
            <path id="Line-2-decoration-1" d="M1274.5,439.5 L1263.7,436.5 L1263.7,442.5 L1274.5,439.5 Z" stroke-linecap="square"></path>
            <g id="Line-2" stroke-linecap="square" stroke="#979797">
                <use stroke-width="2" xlink:href="#path-2"></use>
                <use stroke-width="1" xlink:href="#path-2"></use>
            </g>
            <path id="Line-2-decoration-1" d="M1085,466 L1095.8,469 L1095.8,463 L1085,466 Z" stroke-linecap="square"></path>
            <path d="M306.5,380 L694.5,380" id="Line" stroke="#979797" stroke-width="2" stroke-linecap="square"></path>
            <path id="Line-decoration-1" d="M694.5,380 L683.7,377 L683.7,383 L694.5,380 Z" stroke="#979797" stroke-width="2" stroke-linecap="square"></path>
            <path d="M696,402 L301,402" id="Line" stroke="#979797" stroke-width="2" stroke-linecap="square"></path>
            <path id="Line-decoration-1" d="M301,402 L311.8,405 L311.8,399 L301,402 Z" stroke="#979797" stroke-width="2" stroke-linecap="square"></path>
            <rect id="Rectangle-2" fill="#1135AF" x="695" y="82" width="389" height="686"></rect>
            <rect id="Rectangle-2" fill="#36A008" x="1270.48361" y="82" width="280.51639" height="686"></rect>
            <text id="后端" font-family="PingFangSC-Light, PingFang SC" font-size="36" font-weight="300" fill="#000000">
                <tspan x="837.5" y="38">后端</tspan>
            </text>
            <text id="DB" font-family="PingFangSC-Light, PingFang SC" font-size="36" font-weight="300" fill="#000000">
                <tspan x="1385.876" y="38">DB</tspan>
            </text>
            <g id="Rectangle-3">
                <use fill="#EA6741" fill-rule="evenodd" xlink:href="#path-3"></use>
                <rect stroke="#979797" stroke-width="1" x="695.5" y="246.5" width="177" height="357"></rect>
            </g>
            <text id="GraphQL-服务" font-family="PingFangSC-Light, PingFang SC" font-size="36" font-weight="300" fill="#000000">
                <tspan x="710.268" y="408">GraphQL</tspan>
                <tspan x="748.5" y="458">服务</tspan>
            </text>
            <text id="{-hero-{-name-friend" font-family="PingFangSC-Light, PingFang SC" font-size="12" font-weight="300" fill="#000000">
                <tspan x="439" y="250">{</tspan>
                <tspan x="439" y="267">  hero {</tspan>
                <tspan x="439" y="284">    name</tspan>
                <tspan x="439" y="301">    friends {</tspan>
                <tspan x="439" y="318">      name</tspan>
                <tspan x="439" y="335">    }</tspan>
                <tspan x="439" y="352">  }</tspan>
                <tspan x="439" y="369">}</tspan>
            </text>
            <text id="select-…-from-…-wher" font-family="PingFangSC-Light, PingFang SC" font-size="13" font-weight="300" fill="#000000">
                <tspan x="1153" y="383">select …</tspan>
                <tspan x="1153" y="401">from …</tspan>
                <tspan x="1153" y="419">where …</tspan>
            </text>
            <path d="M877.5,318.5 L953.5,318.5" id="Line-3" stroke="#979797" stroke-linecap="square"></path>
            <path id="Line-3-decoration-1" d="M953.5,318.5 L942.7,315.5 L942.7,321.5 L953.5,318.5 Z" stroke="#979797" stroke-linecap="square"></path>
            <path d="M951.5,334.5 L872.5,334.5" id="Line-3" stroke="#979797" stroke-linecap="square"></path>
            <path id="Line-3-decoration-1" d="M872.5,334.5 L883.3,337.5 L883.3,331.5 L872.5,334.5 Z" stroke="#979797" stroke-linecap="square"></path>
            <path d="M872.5,426.5 L948.5,426.5" id="Line-3" stroke="#979797" stroke-linecap="square"></path>
            <path id="Line-3-decoration-1" d="M948.5,426.5 L937.7,423.5 L937.7,429.5 L948.5,426.5 Z" stroke="#979797" stroke-linecap="square"></path>
            <path d="M951.5,436.5 L868.5,436.5" id="Line-3" stroke="#979797" stroke-linecap="square"></path>
            <path id="Line-3-decoration-1" d="M868.5,436.5 L879.3,439.5 L879.3,433.5 L868.5,436.5 Z" stroke="#979797" stroke-linecap="square"></path>
            <path d="M849.5,602.5 L911.5,655.5" id="Line-3" stroke="#979797" stroke-linecap="square"></path>
            <path id="Line-3-decoration-1" d="M911.5,655.5 L905.240033,646.202 L901.341346,650.762728 L911.5,655.5 Z" stroke="#979797" stroke-linecap="square"></path>
            <path d="M900.5,655.5 L839.5,606.5" id="Line-3" stroke="#979797" stroke-linecap="square"></path>
            <path id="Line-3-decoration-1" d="M839.5,606.5 L846.041143,615.602387 L849.798657,610.924665 L839.5,606.5 Z" stroke="#979797" stroke-linecap="square"></path>
            <path d="M873.5,532.5 L949.5,532.5" id="Line-3" stroke="#979797" stroke-linecap="square"></path>
            <path id="Line-3-decoration-1" d="M949.5,532.5 L938.7,529.5 L938.7,535.5 L949.5,532.5 Z" stroke="#979797" stroke-linecap="square"></path>
            <path d="M949.5,540.5 L874.5,540.5" id="Line-3" stroke="#979797" stroke-linecap="square"></path>
            <path id="Line-3-decoration-1" d="M874.5,540.5 L885.3,543.5 L885.3,537.5 L874.5,540.5 Z" stroke="#979797" stroke-linecap="square"></path>
            <path d="M837.5,244.5 L886.5,213.5" id="Line-3" stroke="#979797" stroke-linecap="square"></path>
            <path id="Line-3-decoration-1" d="M886.5,213.5 L875.769223,216.738894 L878.977074,221.809367 L886.5,213.5 Z" stroke="#979797" stroke-linecap="square"></path>
            <path d="M882.5,206.5 L825.5,243.5" id="Line-3" stroke="#979797" stroke-linecap="square"></path>
            <path id="Line-3-decoration-1" d="M825.5,243.5 L836.192233,240.136052 L832.925407,235.103374 L825.5,243.5 Z" stroke="#979797" stroke-linecap="square"></path>
            <text id="1-abc-def-2-ghi-jkl" font-family="PingFangSC-Light, PingFang SC" font-size="13" font-weight="300" fill="#000000">
                <tspan x="1151" y="489">1 abc def</tspan>
                <tspan x="1151" y="507">2 ghi jkl</tspan>
                <tspan x="1151" y="525">3 ……</tspan>
                <tspan x="1151" y="543">……</tspan>
            </text>
            <text id="{-&quot;data&quot;:-{-&quot;hero&quot;:" font-family="PingFangSC-Light, PingFang SC" font-size="13" font-weight="300" fill="#000000">
                <tspan x="372" y="429">{</tspan>
                <tspan x="372" y="447">  "data": {</tspan>
                <tspan x="372" y="465">    "hero": {</tspan>
                <tspan x="372" y="483">      "name": "R2-D2",</tspan>
                <tspan x="372" y="501">      "friends": [</tspan>
                <tspan x="372" y="519">        {</tspan>
                <tspan x="372" y="537">          "name": "Luke Skywalker"</tspan>
                <tspan x="372" y="555">        },</tspan>
                <tspan x="372" y="573">        {</tspan>
                <tspan x="372" y="591">          "name": "Han Solo"</tspan>
                <tspan x="372" y="609">        },</tspan>
                <tspan x="372" y="627">        {</tspan>
                <tspan x="372" y="645">          "name": "Leia Organa"</tspan>
                <tspan x="372" y="663">        }</tspan>
                <tspan x="372" y="681">      ]</tspan>
                <tspan x="372" y="699">    }</tspan>
                <tspan x="372" y="717">  }</tspan>
                <tspan x="372" y="735">}</tspan>
            </text>
        </g>
    </g>
</svg>