<?xml version="1.0" encoding="UTF-8"?><svg xmlns="http://www.w3.org/2000/svg" xmlns:xlink="http://www.w3.org/1999/xlink" fill-opacity="1" color-rendering="auto" color-interpolation="auto" text-rendering="auto" stroke="black" stroke-linecap="square" width="309" stroke-miterlimit="10" shape-rendering="auto" stroke-opacity="1" fill="black" stroke-dasharray="none" font-weight="normal" stroke-width="1" height="72" font-family="'Dialog'" font-style="normal" stroke-linejoin="miter" font-size="12px" stroke-dashoffset="0" image-rendering="auto">
  <!--Generated by ySVG 2.5-->
  <defs id="genericDefs"/>
  <g>
    <defs id="defs1">
      <clipPath clipPathUnits="userSpaceOnUse" id="clipPath1">
        <path d="M0 0 L309 0 L309 72 L0 72 L0 0 Z"/>
      </clipPath>
      <clipPath clipPathUnits="userSpaceOnUse" id="clipPath2">
        <path d="M36 45 L345 45 L345 117 L36 117 L36 45 Z"/>
      </clipPath>
    </defs>
    <g fill="white" text-rendering="geometricPrecision" shape-rendering="geometricPrecision" transform="translate(-36,-45)" stroke="white">
      <rect x="36" width="309" height="72" y="45" clip-path="url(#clipPath2)" stroke="none"/>
    </g>
    <g fill="rgb(255,204,0)" text-rendering="geometricPrecision" shape-rendering="geometricPrecision" transform="matrix(1,0,0,1,-36,-45)" stroke="rgb(255,204,0)">
      <rect x="51.5" width="55" height="24" y="69.0962" clip-path="url(#clipPath2)" stroke="none"/>
      <rect x="51.5" y="69.0962" clip-path="url(#clipPath2)" fill="yellow" width="1" height="24" stroke="none"/>
      <rect x="52.5" y="69.0962" clip-path="url(#clipPath2)" fill="yellow" width="53" height="1" stroke="none"/>
      <rect x="52.5" y="92.0962" clip-path="url(#clipPath2)" fill="rgb(178,142,0)" width="54" height="1" stroke="none"/>
      <rect x="105.5" y="69.0962" clip-path="url(#clipPath2)" fill="rgb(178,142,0)" width="1" height="23" stroke="none"/>
    </g>
    <g text-rendering="geometricPrecision" stroke-miterlimit="1.45" shape-rendering="geometricPrecision" font-family="sans-serif" transform="matrix(1,0,0,1,-36,-45)" stroke-linecap="butt">
      <text x="56.0371" xml:space="preserve" y="85.6313" clip-path="url(#clipPath2)" stroke="none">flex文件</text>
    </g>
    <g fill="rgb(255,204,0)" text-rendering="geometricPrecision" shape-rendering="geometricPrecision" transform="matrix(1,0,0,1,-36,-45)" stroke="rgb(255,204,0)">
      <rect x="228.5" width="101" height="41" y="60.5962" clip-path="url(#clipPath2)" stroke="none"/>
      <rect x="228.5" y="60.5962" clip-path="url(#clipPath2)" fill="yellow" width="1" height="41" stroke="none"/>
      <rect x="229.5" y="60.5962" clip-path="url(#clipPath2)" fill="yellow" width="99" height="1" stroke="none"/>
      <rect x="229.5" y="100.5962" clip-path="url(#clipPath2)" fill="rgb(178,142,0)" width="100" height="1" stroke="none"/>
      <rect x="328.5" y="60.5962" clip-path="url(#clipPath2)" fill="rgb(178,142,0)" width="1" height="40" stroke="none"/>
    </g>
    <g text-rendering="geometricPrecision" stroke-miterlimit="1.45" shape-rendering="geometricPrecision" font-family="sans-serif" transform="matrix(1,0,0,1,-36,-45)" stroke-linecap="butt">
      <text x="231" xml:space="preserve" y="78.5649" clip-path="url(#clipPath2)" stroke="none">词法分析器源文件</text>
      <text x="257.1035" xml:space="preserve" y="92.6977" clip-path="url(#clipPath2)" stroke="none">lex.yy.c</text>
      <path fill="none" d="M106.5 81.0962 L217.4702 81.0962" clip-path="url(#clipPath2)"/>
      <path d="M228.4702 81.0962 L216.4702 75.0962 L216.4702 87.0962 Z" clip-path="url(#clipPath2)" stroke="none"/>
      <rect x="142.5371" y="72.0298" clip-path="url(#clipPath2)" fill="white" width="49.9258" height="18.1328" stroke="none"/>
      <text x="144.5371" xml:space="preserve" y="85.6313" clip-path="url(#clipPath2)" stroke="none">flex命令</text>
    </g>
  </g>
</svg>
