<?xml version="1.0" encoding="UTF-8"?><svg xmlns="http://www.w3.org/2000/svg" xmlns:xlink="http://www.w3.org/1999/xlink" fill-opacity="1" color-rendering="auto" color-interpolation="auto" text-rendering="auto" stroke="black" stroke-linecap="square" width="576" stroke-miterlimit="10" shape-rendering="auto" stroke-opacity="1" fill="black" stroke-dasharray="none" font-weight="normal" stroke-width="1" height="54" font-family="'Dialog'" font-style="normal" stroke-linejoin="miter" font-size="12px" stroke-dashoffset="0" image-rendering="auto">
  <!--Generated by ySVG 2.5-->
  <defs id="genericDefs"/>
  <g>
    <defs id="defs1">
      <clipPath clipPathUnits="userSpaceOnUse" id="clipPath1">
        <path d="M0 0 L576 0 L576 54 L0 54 L0 0 Z"/>
      </clipPath>
      <clipPath clipPathUnits="userSpaceOnUse" id="clipPath2">
        <path d="M-41 -27 L535 -27 L535 27 L-41 27 L-41 -27 Z"/>
      </clipPath>
    </defs>
    <g fill="white" text-rendering="geometricPrecision" shape-rendering="geometricPrecision" transform="translate(41,27)" stroke="white">
      <rect x="-41" width="576" height="54" y="-27" clip-path="url(#clipPath2)" stroke="none"/>
    </g>
    <g fill="rgb(255,204,0)" text-rendering="geometricPrecision" shape-rendering="geometricPrecision" transform="matrix(1,0,0,1,41,27)" stroke="rgb(255,204,0)">
      <rect x="380.5" width="139" height="24" y="-12" clip-path="url(#clipPath2)" stroke="none"/>
    </g>
    <g text-rendering="geometricPrecision" stroke-miterlimit="1.45" shape-rendering="geometricPrecision" transform="matrix(1,0,0,1,41,27)" stroke-linecap="butt">
      <rect fill="none" x="380.5" width="139" height="24" y="-12" clip-path="url(#clipPath2)"/>
      <text x="386.0215" xml:space="preserve" y="4.5352" clip-path="url(#clipPath2)" font-family="sans-serif" stroke="none">bison生成的语法分析器</text>
    </g>
    <g fill="rgb(255,204,0)" text-rendering="geometricPrecision" shape-rendering="geometricPrecision" transform="matrix(1,0,0,1,41,27)" stroke="rgb(255,204,0)">
      <rect x="137" width="126" height="24" y="-12" clip-path="url(#clipPath2)" stroke="none"/>
    </g>
    <g text-rendering="geometricPrecision" stroke-miterlimit="1.45" shape-rendering="geometricPrecision" transform="matrix(1,0,0,1,41,27)" stroke-linecap="butt">
      <rect fill="none" x="137" width="126" height="24" y="-12" clip-path="url(#clipPath2)"/>
      <text x="141.0371" xml:space="preserve" y="4.5352" clip-path="url(#clipPath2)" font-family="sans-serif" stroke="none">flex生成的词法分析器</text>
    </g>
    <g fill="rgb(255,204,0)" text-rendering="geometricPrecision" shape-rendering="geometricPrecision" transform="matrix(1,0,0,1,41,27)" stroke="rgb(255,204,0)">
      <rect x="-25.5" width="51" height="24" y="-12" clip-path="url(#clipPath2)" stroke="none"/>
    </g>
    <g text-rendering="geometricPrecision" stroke-miterlimit="1.45" shape-rendering="geometricPrecision" transform="matrix(1,0,0,1,41,27)" stroke-linecap="butt">
      <rect fill="none" x="-25.5" width="51" height="24" y="-12" clip-path="url(#clipPath2)"/>
      <text x="-18" xml:space="preserve" y="4.5352" clip-path="url(#clipPath2)" font-family="sans-serif" stroke="none">源文件</text>
      <path fill="none" d="M380.4713 0 L274 0" clip-path="url(#clipPath2)"/>
      <path d="M263 0 L275 6 L275 -6 Z" clip-path="url(#clipPath2)" stroke="none"/>
      <rect x="278.4941" y="-9.0664" clip-path="url(#clipPath2)" fill="white" width="97.0059" height="18.1328" stroke="none"/>
      <text x="280.4941" xml:space="preserve" y="4.5352" clip-path="url(#clipPath2)" font-family="sans-serif" stroke="none">请求下一个token</text>
      <path fill="none" d="M136.9728 0 L36.5 0" clip-path="url(#clipPath2)"/>
      <path d="M25.5 0 L37.5 6 L37.5 -6 Z" clip-path="url(#clipPath2)" stroke="none"/>
    </g>
  </g>
</svg>
