<?xml version="1.0" encoding="UTF-8"?><svg xmlns="http://www.w3.org/2000/svg" xmlns:xlink="http://www.w3.org/1999/xlink" fill-opacity="1" color-rendering="auto" color-interpolation="auto" text-rendering="auto" stroke="black" stroke-linecap="square" width="308" stroke-miterlimit="10" shape-rendering="auto" stroke-opacity="1" fill="black" stroke-dasharray="none" font-weight="normal" stroke-width="1" height="241" font-family="'Dialog'" font-style="normal" stroke-linejoin="miter" font-size="12px" stroke-dashoffset="0" image-rendering="auto">
  <!--Generated by ySVG 2.5-->
  <defs id="genericDefs"/>
  <g>
    <defs id="defs1">
      <clipPath clipPathUnits="userSpaceOnUse" id="clipPath1">
        <path d="M0 0 L308 0 L308 241 L0 241 L0 0 Z"/>
      </clipPath>
      <clipPath clipPathUnits="userSpaceOnUse" id="clipPath2">
        <path d="M322 159 L630 159 L630 400 L322 400 L322 159 Z"/>
      </clipPath>
    </defs>
    <g fill="rgb(255,204,0)" text-rendering="geometricPrecision" shape-rendering="geometricPrecision" transform="matrix(1,0,0,1,-322,-159)" stroke="rgb(255,204,0)">
      <path d="M452.1319 271.1517 L479.1319 271.1517 L482.1319 286.1517 L479.1319 301.1517 L452.1319 301.1517 L455.1319 286.1517 Z" fill-rule="evenodd" clip-path="url(#clipPath2)" stroke="none"/>
    </g>
    <g text-rendering="geometricPrecision" stroke-miterlimit="1.45" shape-rendering="geometricPrecision" transform="matrix(1,0,0,1,-322,-159)" stroke-linecap="butt">
      <path fill="none" d="M452.1319 271.1517 L479.1319 271.1517 L482.1319 286.1517 L479.1319 301.1517 L452.1319 301.1517 L455.1319 286.1517 Z" fill-rule="evenodd" clip-path="url(#clipPath2)"/>
      <text x="455.636" xml:space="preserve" y="290.6869" clip-path="url(#clipPath2)" font-family="sans-serif" stroke="none">ALU</text>
    </g>
    <g fill="rgb(255,204,0)" text-rendering="geometricPrecision" shape-rendering="geometricPrecision" transform="matrix(1,0,0,1,-322,-159)" stroke="rgb(255,204,0)">
      <rect x="349.4409" width="30" height="30" y="174.9071" clip-path="url(#clipPath2)" stroke="none"/>
    </g>
    <g text-rendering="geometricPrecision" stroke-miterlimit="1.45" shape-rendering="geometricPrecision" transform="matrix(1,0,0,1,-322,-159)" stroke-linecap="butt">
      <rect fill="none" x="349.4409" width="30" height="30" y="174.9071" clip-path="url(#clipPath2)"/>
      <text x="351.3394" xml:space="preserve" y="194.4423" clip-path="url(#clipPath2)" font-family="sans-serif" stroke="none">RAM</text>
    </g>
    <g fill="rgb(255,204,0)" text-rendering="geometricPrecision" shape-rendering="geometricPrecision" transform="matrix(1,0,0,1,-322,-159)" stroke="rgb(255,204,0)">
      <rect x="343.6628" width="41.5562" height="30" y="234.9071" clip-path="url(#clipPath2)" stroke="none"/>
    </g>
    <g text-rendering="geometricPrecision" stroke-miterlimit="1.45" shape-rendering="geometricPrecision" transform="matrix(1,0,0,1,-322,-159)" stroke-linecap="butt">
      <rect fill="none" x="343.6628" width="41.5562" height="30" y="234.9071" clip-path="url(#clipPath2)"/>
      <text x="346.4409" xml:space="preserve" y="254.4423" clip-path="url(#clipPath2)" font-family="sans-serif" stroke="none">寄存器</text>
    </g>
    <g fill="rgb(255,204,0)" text-rendering="geometricPrecision" shape-rendering="geometricPrecision" transform="matrix(1,0,0,1,-322,-159)" stroke="rgb(255,204,0)">
      <rect x="343.6628" width="41.5562" height="30" y="294.9071" clip-path="url(#clipPath2)" stroke="none"/>
    </g>
    <g text-rendering="geometricPrecision" stroke-miterlimit="1.45" shape-rendering="geometricPrecision" transform="matrix(1,0,0,1,-322,-159)" stroke-linecap="butt">
      <rect fill="none" x="343.6628" width="41.5562" height="30" y="294.9071" clip-path="url(#clipPath2)"/>
      <text x="346.4409" xml:space="preserve" y="314.4423" clip-path="url(#clipPath2)" font-family="sans-serif" stroke="none">立即数</text>
    </g>
    <g fill="rgb(255,204,0)" text-rendering="geometricPrecision" shape-rendering="geometricPrecision" transform="matrix(1,0,0,1,-322,-159)" stroke="rgb(255,204,0)">
      <rect x="337.0968" width="54.6883" height="30" y="354.9071" clip-path="url(#clipPath2)" stroke="none"/>
    </g>
    <g text-rendering="geometricPrecision" stroke-miterlimit="1.45" shape-rendering="geometricPrecision" transform="matrix(1,0,0,1,-322,-159)" stroke-linecap="butt">
      <rect fill="none" x="337.0968" width="54.6883" height="30" y="354.9071" clip-path="url(#clipPath2)"/>
      <text x="340.4409" xml:space="preserve" y="374.4423" clip-path="url(#clipPath2)" font-family="sans-serif" stroke="none">外部设备</text>
    </g>
    <g fill="rgb(255,204,0)" text-rendering="geometricPrecision" shape-rendering="geometricPrecision" transform="matrix(1,0,0,1,-322,-159)" stroke="rgb(255,204,0)">
      <rect x="572.0443" width="30" height="30" y="211.1517" clip-path="url(#clipPath2)" stroke="none"/>
    </g>
    <g text-rendering="geometricPrecision" stroke-miterlimit="1.45" shape-rendering="geometricPrecision" transform="matrix(1,0,0,1,-322,-159)" stroke-linecap="butt">
      <rect fill="none" x="572.0443" width="30" height="30" y="211.1517" clip-path="url(#clipPath2)"/>
      <text x="573.9427" xml:space="preserve" y="230.6869" clip-path="url(#clipPath2)" font-family="sans-serif" stroke="none">RAM</text>
    </g>
    <g fill="rgb(255,204,0)" text-rendering="geometricPrecision" shape-rendering="geometricPrecision" transform="matrix(1,0,0,1,-322,-159)" stroke="rgb(255,204,0)">
      <rect x="566.2661" width="41.5562" height="30" y="271.1517" clip-path="url(#clipPath2)" stroke="none"/>
    </g>
    <g text-rendering="geometricPrecision" stroke-miterlimit="1.45" shape-rendering="geometricPrecision" transform="matrix(1,0,0,1,-322,-159)" stroke-linecap="butt">
      <rect fill="none" x="566.2661" width="41.5562" height="30" y="271.1517" clip-path="url(#clipPath2)"/>
      <text x="569.0443" xml:space="preserve" y="290.6869" clip-path="url(#clipPath2)" font-family="sans-serif" stroke="none">寄存器</text>
    </g>
    <g fill="rgb(255,204,0)" text-rendering="geometricPrecision" shape-rendering="geometricPrecision" transform="matrix(1,0,0,1,-322,-159)" stroke="rgb(255,204,0)">
      <rect x="559.7001" width="54.6883" height="30" y="331.1517" clip-path="url(#clipPath2)" stroke="none"/>
    </g>
    <g text-rendering="geometricPrecision" stroke-miterlimit="1.45" shape-rendering="geometricPrecision" transform="matrix(1,0,0,1,-322,-159)" stroke-linecap="butt">
      <rect fill="none" x="559.7001" width="54.6883" height="30" y="331.1517" clip-path="url(#clipPath2)"/>
      <text x="563.0443" xml:space="preserve" y="350.6869" clip-path="url(#clipPath2)" font-family="sans-serif" stroke="none">外部设备</text>
      <path fill="none" d="M379.4409 203.9655 L446.5442 266.8563" clip-path="url(#clipPath2)"/>
      <path d="M452.3813 272.3269 L447.0448 260.4727 L445.8146 266.1725 L440.2065 267.7691 Z" clip-path="url(#clipPath2)" stroke="none"/>
      <text x="386.3625" font-size="6px" y="286.1134" clip-path="url(#clipPath2)" font-family="sans-serif" stroke="none" xml:space="preserve">由指令+逻辑电路选择</text>
      <path fill="none" d="M385.219 257.2407 L446.6693 278.9294" clip-path="url(#clipPath2)"/>
      <path d="M454.2132 281.592 L444.5615 272.8832 L445.7263 278.5966 L441.2332 282.313 Z" clip-path="url(#clipPath2)" stroke="none"/>
      <path fill="none" d="M385.219 305.1006 L446.739 290.8692" clip-path="url(#clipPath2)"/>
      <path d="M454.5331 289.0662 L441.715 286.8994 L445.7647 291.0946 L443.9688 296.6421 Z" clip-path="url(#clipPath2)" stroke="none"/>
      <path fill="none" d="M382.8322 354.9071 L446.5876 302.9079" clip-path="url(#clipPath2)"/>
      <path d="M452.7871 297.8515 L440.3277 301.5613 L445.8127 303.5399 L446.6481 309.3107 Z" clip-path="url(#clipPath2)" stroke="none"/>
      <path fill="none" d="M480.7452 279.3402 L564.8899 237.237" clip-path="url(#clipPath2)"/>
      <path d="M572.0443 233.6572 L559.0753 234.5554 L563.9956 237.6845 L563.5501 243.4984 Z" clip-path="url(#clipPath2)" stroke="none"/>
      <path fill="none" d="M482.1504 286.1517 L558.2662 286.1517" clip-path="url(#clipPath2)"/>
      <path d="M566.2662 286.1517 L554.2662 281.1517 L557.2662 286.1517 L554.2662 291.1517 Z" clip-path="url(#clipPath2)" stroke="none"/>
      <text x="489.1321" font-size="6px" y="280.5989" clip-path="url(#clipPath2)" font-family="sans-serif" stroke="none" xml:space="preserve">由指令+逻辑电路选择</text>
      <path fill="none" d="M480.7452 292.9632 L552.5457 328.8898" clip-path="url(#clipPath2)"/>
      <path d="M559.7001 332.4696 L551.2059 322.6284 L551.6514 328.4423 L546.7311 331.5714 Z" clip-path="url(#clipPath2)" stroke="none"/>
    </g>
  </g>
</svg>
