<?xml version="1.0" encoding="UTF-8"?><svg xmlns="http://www.w3.org/2000/svg" xmlns:xlink="http://www.w3.org/1999/xlink" fill-opacity="1" color-rendering="auto" color-interpolation="auto" text-rendering="auto" stroke="black" stroke-linecap="square" width="687" stroke-miterlimit="10" shape-rendering="auto" stroke-opacity="1" fill="black" stroke-dasharray="none" font-weight="normal" stroke-width="1" height="64" font-family="'Dialog'" font-style="normal" stroke-linejoin="miter" font-size="12px" stroke-dashoffset="0" image-rendering="auto">
  <!--Generated by ySVG 2.5-->
  <defs id="genericDefs"/>
  <g>
    <defs id="defs1">
      <clipPath clipPathUnits="userSpaceOnUse" id="clipPath1">
        <path d="M0 0 L687 0 L687 64 L0 64 L0 0 Z"/>
      </clipPath>
      <clipPath clipPathUnits="userSpaceOnUse" id="clipPath2">
        <path d="M-39 -32 L648 -32 L648 32 L-39 32 L-39 -32 Z"/>
      </clipPath>
    </defs>
    <g fill="white" text-rendering="geometricPrecision" shape-rendering="geometricPrecision" transform="translate(39,32)" stroke="white">
      <rect x="-39" width="687" height="64" y="-32" clip-path="url(#clipPath2)" stroke="none"/>
    </g>
    <g fill="rgb(255,204,0)" text-rendering="geometricPrecision" shape-rendering="geometricPrecision" transform="matrix(1,0,0,1,39,32)" stroke="rgb(255,204,0)">
      <rect x="-24" width="48" height="25" y="-12.5" clip-path="url(#clipPath2)" stroke="none"/>
      <rect x="-24" y="-12.5" clip-path="url(#clipPath2)" fill="yellow" width="1" height="25" stroke="none"/>
      <rect x="-23" y="-12.5" clip-path="url(#clipPath2)" fill="yellow" width="46" height="1" stroke="none"/>
      <rect x="-23" y="11.5" clip-path="url(#clipPath2)" fill="rgb(178,142,0)" width="47" height="1" stroke="none"/>
      <rect x="23" y="-12.5" clip-path="url(#clipPath2)" fill="rgb(178,142,0)" width="1" height="24" stroke="none"/>
    </g>
    <g text-rendering="geometricPrecision" stroke-miterlimit="1.45" shape-rendering="geometricPrecision" font-family="sans-serif" transform="matrix(1,0,0,1,39,32)" stroke-linecap="butt">
      <text x="-18" xml:space="preserve" y="4.5352" clip-path="url(#clipPath2)" stroke="none">源代码</text>
    </g>
    <g fill="rgb(255,204,0)" text-rendering="geometricPrecision" shape-rendering="geometricPrecision" transform="matrix(1,0,0,1,39,32)" stroke="rgb(255,204,0)">
      <rect x="126" width="48" height="30" y="-15" clip-path="url(#clipPath2)" stroke="none"/>
      <rect x="126" y="-15" clip-path="url(#clipPath2)" fill="yellow" width="1" height="30" stroke="none"/>
      <rect x="127" y="-15" clip-path="url(#clipPath2)" fill="yellow" width="46" height="1" stroke="none"/>
      <rect x="127" y="14" clip-path="url(#clipPath2)" fill="rgb(178,142,0)" width="47" height="1" stroke="none"/>
      <rect x="173" y="-15" clip-path="url(#clipPath2)" fill="rgb(178,142,0)" width="1" height="29" stroke="none"/>
    </g>
    <g text-rendering="geometricPrecision" stroke-miterlimit="1.45" shape-rendering="geometricPrecision" font-family="sans-serif" transform="matrix(1,0,0,1,39,32)" stroke-linecap="butt">
      <text x="130.4385" xml:space="preserve" y="4.5352" clip-path="url(#clipPath2)" stroke="none">tokens</text>
    </g>
    <g fill="rgb(255,204,0)" text-rendering="geometricPrecision" shape-rendering="geometricPrecision" transform="matrix(1,0,0,1,39,32)" stroke="rgb(255,204,0)">
      <rect x="282" width="36" height="30" y="-15" clip-path="url(#clipPath2)" stroke="none"/>
      <rect x="282" y="-15" clip-path="url(#clipPath2)" fill="yellow" width="1" height="30" stroke="none"/>
      <rect x="283" y="-15" clip-path="url(#clipPath2)" fill="yellow" width="34" height="1" stroke="none"/>
      <rect x="283" y="14" clip-path="url(#clipPath2)" fill="rgb(178,142,0)" width="35" height="1" stroke="none"/>
      <rect x="317" y="-15" clip-path="url(#clipPath2)" fill="rgb(178,142,0)" width="1" height="29" stroke="none"/>
    </g>
    <g text-rendering="geometricPrecision" stroke-miterlimit="1.45" shape-rendering="geometricPrecision" font-family="sans-serif" transform="matrix(1,0,0,1,39,32)" stroke-linecap="butt">
      <text x="288.835" xml:space="preserve" y="4.5352" clip-path="url(#clipPath2)" stroke="none">AST</text>
    </g>
    <g fill="rgb(255,204,0)" text-rendering="geometricPrecision" shape-rendering="geometricPrecision" transform="matrix(1,0,0,1,39,32)" stroke="rgb(255,204,0)">
      <rect x="423.5" width="53" height="30" y="-15" clip-path="url(#clipPath2)" stroke="none"/>
      <rect x="423.5" y="-15" clip-path="url(#clipPath2)" fill="yellow" width="1" height="30" stroke="none"/>
      <rect x="424.5" y="-15" clip-path="url(#clipPath2)" fill="yellow" width="51" height="1" stroke="none"/>
      <rect x="424.5" y="14" clip-path="url(#clipPath2)" fill="rgb(178,142,0)" width="52" height="1" stroke="none"/>
      <rect x="475.5" y="-15" clip-path="url(#clipPath2)" fill="rgb(178,142,0)" width="1" height="29" stroke="none"/>
    </g>
    <g text-rendering="geometricPrecision" stroke-miterlimit="1.45" shape-rendering="geometricPrecision" font-family="sans-serif" transform="matrix(1,0,0,1,39,32)" stroke-linecap="butt">
      <text x="427.0898" xml:space="preserve" y="4.5352" clip-path="url(#clipPath2)" stroke="none">LLVM IR</text>
    </g>
    <g fill="rgb(255,204,0)" text-rendering="geometricPrecision" shape-rendering="geometricPrecision" transform="matrix(1,0,0,1,39,32)" stroke="rgb(255,204,0)">
      <rect x="567" width="66" height="30" y="-15" clip-path="url(#clipPath2)" stroke="none"/>
      <rect x="567" y="-15" clip-path="url(#clipPath2)" fill="yellow" width="1" height="30" stroke="none"/>
      <rect x="568" y="-15" clip-path="url(#clipPath2)" fill="yellow" width="64" height="1" stroke="none"/>
      <rect x="568" y="14" clip-path="url(#clipPath2)" fill="rgb(178,142,0)" width="65" height="1" stroke="none"/>
      <rect x="632" y="-15" clip-path="url(#clipPath2)" fill="rgb(178,142,0)" width="1" height="29" stroke="none"/>
    </g>
    <g text-rendering="geometricPrecision" stroke-miterlimit="1.45" shape-rendering="geometricPrecision" font-family="sans-serif" transform="matrix(1,0,0,1,39,32)" stroke-linecap="butt">
      <text x="570" xml:space="preserve" y="4.5352" clip-path="url(#clipPath2)" stroke="none">可执行文件</text>
      <path fill="none" d="M24 0 L114.9502 0" clip-path="url(#clipPath2)"/>
      <path d="M125.9502 0 L113.9502 -6 L113.9502 6 Z" clip-path="url(#clipPath2)" stroke="none"/>
      <rect x="49" y="-16.1328" clip-path="url(#clipPath2)" fill="white" width="52" height="32.2656" stroke="none"/>
      <text x="51" xml:space="preserve" y="-2.5312" clip-path="url(#clipPath2)" stroke="none">词法分析</text>
      <text x="64.0371" xml:space="preserve" y="11.6016" clip-path="url(#clipPath2)" stroke="none">flex</text>
      <path fill="none" d="M174 0 L270.9736 0" clip-path="url(#clipPath2)"/>
      <path d="M281.9736 0 L269.9736 -6 L269.9736 6 Z" clip-path="url(#clipPath2)" stroke="none"/>
      <rect x="202" y="-16.1328" clip-path="url(#clipPath2)" fill="white" width="52" height="32.2656" stroke="none"/>
      <text x="204" xml:space="preserve" y="-2.5312" clip-path="url(#clipPath2)" stroke="none">语法分析</text>
      <text x="212.0215" xml:space="preserve" y="11.6016" clip-path="url(#clipPath2)" stroke="none">bison</text>
      <path fill="none" d="M318 0 L412.4742 0" clip-path="url(#clipPath2)"/>
      <path d="M423.4742 0 L411.4742 -6 L411.4742 6 Z" clip-path="url(#clipPath2)" stroke="none"/>
      <rect x="344.75" y="-9.0664" clip-path="url(#clipPath2)" fill="white" width="52" height="18.1328" stroke="none"/>
      <text x="346.75" xml:space="preserve" y="4.5352" clip-path="url(#clipPath2)" stroke="none">代码生成</text>
      <path fill="none" d="M476.5 0 L555.9558 0" clip-path="url(#clipPath2)"/>
      <path d="M566.9558 0 L554.9558 -6 L554.9558 6 Z" clip-path="url(#clipPath2)" stroke="none"/>
      <rect x="490.1191" y="-16.1328" clip-path="url(#clipPath2)" fill="white" width="63.2617" height="32.2656" stroke="none"/>
      <text x="492.1191" xml:space="preserve" y="-2.5312" clip-path="url(#clipPath2)" stroke="none">关我啥事(x</text>
      <text x="509.5742" xml:space="preserve" y="11.6016" clip-path="url(#clipPath2)" stroke="none">llvm</text>
    </g>
  </g>
</svg>
