<?xml version="1.0" encoding="UTF-8"?><svg xmlns="http://www.w3.org/2000/svg" xmlns:xlink="http://www.w3.org/1999/xlink" fill-opacity="1" color-rendering="auto" color-interpolation="auto" text-rendering="auto" stroke="black" stroke-linecap="square" width="298" stroke-miterlimit="10" shape-rendering="auto" stroke-opacity="1" fill="black" stroke-dasharray="none" font-weight="normal" stroke-width="1" height="210" font-family="'Dialog'" font-style="normal" stroke-linejoin="miter" font-size="12px" stroke-dashoffset="0" image-rendering="auto">
  <!--Generated by ySVG 2.5-->
  <defs id="genericDefs"/>
  <g>
    <defs id="defs1">
      <clipPath clipPathUnits="userSpaceOnUse" id="clipPath1">
        <path d="M0 0 L298 0 L298 210 L0 210 L0 0 Z"/>
      </clipPath>
      <clipPath clipPathUnits="userSpaceOnUse" id="clipPath2">
        <path d="M-149 -152 L149 -152 L149 58 L-149 58 L-149 -152 Z"/>
      </clipPath>
    </defs>
    <g fill="white" text-rendering="geometricPrecision" shape-rendering="geometricPrecision" transform="translate(149,152)" stroke="white">
      <rect x="-149" width="298" height="210" y="-152" clip-path="url(#clipPath2)" stroke="none"/>
    </g>
    <g fill="rgb(255,204,0)" text-rendering="geometricPrecision" shape-rendering="geometricPrecision" transform="matrix(1,0,0,1,149,152)" stroke="rgb(255,204,0)">
      <rect x="-27.5" width="55" height="24" y="-137" clip-path="url(#clipPath2)" stroke="none"/>
      <rect x="-27.5" y="-137" clip-path="url(#clipPath2)" fill="yellow" width="1" height="24" stroke="none"/>
      <rect x="-26.5" y="-137" clip-path="url(#clipPath2)" fill="yellow" width="53" height="1" stroke="none"/>
      <rect x="-26.5" y="-114" clip-path="url(#clipPath2)" fill="rgb(178,142,0)" width="54" height="1" stroke="none"/>
      <rect x="26.5" y="-137" clip-path="url(#clipPath2)" fill="rgb(178,142,0)" width="1" height="23" stroke="none"/>
    </g>
    <g text-rendering="geometricPrecision" stroke-miterlimit="1.45" shape-rendering="geometricPrecision" font-family="sans-serif" transform="matrix(1,0,0,1,149,152)" stroke-linecap="butt">
      <text x="-17.0332" xml:space="preserve" y="-120.4648" clip-path="url(#clipPath2)" stroke="none">.y文件</text>
    </g>
    <g fill="rgb(245,245,245)" text-rendering="geometricPrecision" shape-rendering="geometricPrecision" transform="matrix(1,0,0,1,149,152)" stroke="rgb(245,245,245)">
      <rect x="-133.0512" y="-49.8663" clip-path="url(#clipPath2)" width="266.1024" rx="4" ry="4" height="92.666" stroke="none"/>
      <rect x="-133.0512" y="-49.8663" clip-path="url(#clipPath2)" fill="rgb(235,235,235)" width="266.1024" height="21.666" stroke="none"/>
    </g>
    <g font-size="15px" stroke-linecap="butt" transform="matrix(1,0,0,1,149,152)" text-rendering="geometricPrecision" font-family="sans-serif" shape-rendering="geometricPrecision" stroke-miterlimit="1.45">
      <text x="71.8788" xml:space="preserve" y="-33.3644" clip-path="url(#clipPath2)" stroke="none">Group 1</text>
      <rect x="-133.0512" y="-49.8663" clip-path="url(#clipPath2)" fill="none" width="266.1024" stroke-dasharray="6,2" rx="4" ry="4" height="92.666"/>
    </g>
    <g fill="rgb(255,204,0)" text-rendering="geometricPrecision" shape-rendering="geometricPrecision" transform="matrix(1,0,0,1,149,152)" stroke="rgb(255,204,0)">
      <rect x="-118.0512" width="101" height="41" y="-13.2003" clip-path="url(#clipPath2)" stroke="none"/>
      <rect x="-118.0512" y="-13.2003" clip-path="url(#clipPath2)" fill="yellow" width="1" height="41" stroke="none"/>
      <rect x="-117.0512" y="-13.2003" clip-path="url(#clipPath2)" fill="yellow" width="99" height="1" stroke="none"/>
      <rect x="-117.0512" y="26.7997" clip-path="url(#clipPath2)" fill="rgb(178,142,0)" width="100" height="1" stroke="none"/>
      <rect x="-18.0512" y="-13.2003" clip-path="url(#clipPath2)" fill="rgb(178,142,0)" width="1" height="40" stroke="none"/>
    </g>
    <g text-rendering="geometricPrecision" stroke-miterlimit="1.45" shape-rendering="geometricPrecision" font-family="sans-serif" transform="matrix(1,0,0,1,149,152)" stroke-linecap="butt">
      <text x="-115.5512" xml:space="preserve" y="4.7685" clip-path="url(#clipPath2)" stroke="none">语法分析器源文件</text>
      <text x="-86.8901" xml:space="preserve" y="18.9013" clip-path="url(#clipPath2)" stroke="none">y.tab.c</text>
    </g>
    <g fill="rgb(255,204,0)" text-rendering="geometricPrecision" shape-rendering="geometricPrecision" transform="matrix(1,0,0,1,149,152)" stroke="rgb(255,204,0)">
      <rect x="17.0512" width="101" height="41" y="-13.2003" clip-path="url(#clipPath2)" stroke="none"/>
      <rect x="17.0512" y="-13.2003" clip-path="url(#clipPath2)" fill="yellow" width="1" height="41" stroke="none"/>
      <rect x="18.0512" y="-13.2003" clip-path="url(#clipPath2)" fill="yellow" width="99" height="1" stroke="none"/>
      <rect x="18.0512" y="26.7997" clip-path="url(#clipPath2)" fill="rgb(178,142,0)" width="100" height="1" stroke="none"/>
      <rect x="117.0512" y="-13.2003" clip-path="url(#clipPath2)" fill="rgb(178,142,0)" width="1" height="40" stroke="none"/>
    </g>
    <g text-rendering="geometricPrecision" stroke-miterlimit="1.45" shape-rendering="geometricPrecision" font-family="sans-serif" transform="matrix(1,0,0,1,149,152)" stroke-linecap="butt">
      <text x="19.5512" xml:space="preserve" y="4.7685" clip-path="url(#clipPath2)" stroke="none">语法分析器头文件</text>
      <text x="47.5619" xml:space="preserve" y="18.9013" clip-path="url(#clipPath2)" stroke="none">y.tab.h</text>
      <path fill="none" d="M-0 -112.9658 L-0 -60.8815" clip-path="url(#clipPath2)"/>
      <path d="M-0 -49.8815 L6 -61.8815 L-6 -61.8815 Z" clip-path="url(#clipPath2)" stroke="none"/>
      <rect x="-29.9785" y="-90.4996" clip-path="url(#clipPath2)" fill="white" width="59.957" height="18.1328" stroke="none"/>
      <text x="-27.9785" xml:space="preserve" y="-76.898" clip-path="url(#clipPath2)" stroke="none">bison命令</text>
    </g>
  </g>
</svg>
