<?xml version="1.0" encoding="UTF-8"?><svg xmlns="http://www.w3.org/2000/svg" xmlns:xlink="http://www.w3.org/1999/xlink" fill-opacity="1" color-rendering="auto" color-interpolation="auto" text-rendering="auto" stroke="black" stroke-linecap="square" width="1014" stroke-miterlimit="10" shape-rendering="auto" stroke-opacity="1" fill="black" stroke-dasharray="none" font-weight="normal" stroke-width="1" height="1426" font-family="'Dialog'" font-style="normal" stroke-linejoin="miter" font-size="12px" stroke-dashoffset="0" image-rendering="auto">
  <!--Generated by ySVG 2.5-->
  <defs id="genericDefs"/>
  <g>
    <defs id="defs1">
      <clipPath clipPathUnits="userSpaceOnUse" id="clipPath1">
        <path d="M0 0 L1014 0 L1014 1426 L0 1426 L0 0 Z"/>
      </clipPath>
      <clipPath clipPathUnits="userSpaceOnUse" id="clipPath2">
        <path d="M28 -167 L535 -167 L535 546 L28 546 L28 -167 Z"/>
      </clipPath>
    </defs>
    <g fill="white" text-rendering="geometricPrecision" shape-rendering="geometricPrecision" transform="scale(2,2) translate(-28,167)" stroke="white">
      <rect x="28" width="507" height="713" y="-167" clip-path="url(#clipPath2)" stroke="none"/>
    </g>
    <g fill="rgb(255,204,0)" text-rendering="geometricPrecision" shape-rendering="geometricPrecision" transform="matrix(2,0,0,2,-56,334)" stroke="rgb(255,204,0)">
      <rect x="90" y="119" clip-path="url(#clipPath2)" width="85" rx="4" ry="4" height="123" stroke="none"/>
    </g>
    <g text-rendering="geometricPrecision" stroke-miterlimit="1.45" shape-rendering="geometricPrecision" transform="matrix(2,0,0,2,-56,334)" stroke-linecap="butt">
      <rect x="90" y="119" clip-path="url(#clipPath2)" fill="none" width="85" rx="4" ry="4" height="123"/>
      <text x="109.2617" xml:space="preserve" y="149.7031" clip-path="url(#clipPath2)" font-family="sans-serif" stroke="none">S' -&gt; •S</text>
      <text x="98.3076" xml:space="preserve" y="163.8359" clip-path="url(#clipPath2)" font-family="sans-serif" stroke="none">S -&gt; •L = R</text>
      <text x="110.0732" xml:space="preserve" y="177.9688" clip-path="url(#clipPath2)" font-family="sans-serif" stroke="none">S -&gt; •R</text>
      <text x="107.2139" xml:space="preserve" y="192.1016" clip-path="url(#clipPath2)" font-family="sans-serif" stroke="none">L -&gt; •*R</text>
      <text x="108.3887" xml:space="preserve" y="206.2344" clip-path="url(#clipPath2)" font-family="sans-serif" stroke="none">L -&gt; •id</text>
      <text x="110.1055" xml:space="preserve" y="220.3672" clip-path="url(#clipPath2)" font-family="sans-serif" stroke="none">R -&gt; •L</text>
      <text x="127.8229" xml:space="preserve" y="134.5883" clip-path="url(#clipPath2)" font-family="'GungSeo'" stroke="none">I0</text>
    </g>
    <g fill="rgb(255,204,0)" text-rendering="geometricPrecision" shape-rendering="geometricPrecision" transform="matrix(2,0,0,2,-56,334)" stroke="rgb(255,204,0)">
      <rect x="264" y="160" clip-path="url(#clipPath2)" width="73" rx="4" ry="4" height="41" stroke="none"/>
    </g>
    <g text-rendering="geometricPrecision" stroke-miterlimit="1.45" shape-rendering="geometricPrecision" transform="matrix(2,0,0,2,-56,334)" stroke-linecap="butt">
      <rect x="264" y="160" clip-path="url(#clipPath2)" fill="none" width="73" rx="4" ry="4" height="41"/>
      <text x="277.2617" xml:space="preserve" y="185.0352" clip-path="url(#clipPath2)" font-family="sans-serif" stroke="none">S' -&gt; S•</text>
      <text x="295.8229" xml:space="preserve" y="170.5415" clip-path="url(#clipPath2)" font-family="'GungSeo'" stroke="none">I1</text>
    </g>
    <g fill="red" text-rendering="geometricPrecision" shape-rendering="geometricPrecision" transform="matrix(2,0,0,2,-56,334)" stroke="red">
      <rect x="90" y="318" clip-path="url(#clipPath2)" width="85" rx="4" ry="4" height="67" stroke="none"/>
    </g>
    <g text-rendering="geometricPrecision" stroke-miterlimit="1.45" shape-rendering="geometricPrecision" transform="matrix(2,0,0,2,-56,334)" stroke-linecap="butt">
      <rect x="90" y="318" clip-path="url(#clipPath2)" fill="none" width="85" rx="4" ry="4" height="67"/>
      <text x="100.6152" xml:space="preserve" y="362.3359" clip-path="url(#clipPath2)" font-family="sans-serif" stroke="none">S -&gt; L• = R</text>
      <text x="112.4131" xml:space="preserve" y="376.4688" clip-path="url(#clipPath2)" font-family="sans-serif" stroke="none">R -&gt; L•</text>
      <text x="127.8229" xml:space="preserve" y="333.5883" clip-path="url(#clipPath2)" font-family="'GungSeo'" stroke="none">I2</text>
    </g>
    <g fill="rgb(255,204,0)" text-rendering="geometricPrecision" shape-rendering="geometricPrecision" transform="matrix(2,0,0,2,-56,334)" stroke="rgb(255,204,0)">
      <rect x="261" y="327.5" clip-path="url(#clipPath2)" width="79" rx="4" ry="4" height="48" stroke="none"/>
    </g>
    <g text-rendering="geometricPrecision" stroke-miterlimit="1.45" shape-rendering="geometricPrecision" transform="matrix(2,0,0,2,-56,334)" stroke-linecap="butt">
      <rect x="261" y="327.5" clip-path="url(#clipPath2)" fill="none" width="79" rx="4" ry="4" height="48"/>
      <text x="278.0732" xml:space="preserve" y="356.0352" clip-path="url(#clipPath2)" font-family="sans-serif" stroke="none">S -&gt; R•</text>
      <text x="295.8229" xml:space="preserve" y="343.0883" clip-path="url(#clipPath2)" font-family="'GungSeo'" stroke="none">I3</text>
    </g>
    <g fill="rgb(255,204,0)" text-rendering="geometricPrecision" shape-rendering="geometricPrecision" transform="matrix(2,0,0,2,-56,334)" stroke="rgb(255,204,0)">
      <rect x="90" y="-38" clip-path="url(#clipPath2)" width="85" rx="4" ry="4" height="92" stroke="none"/>
    </g>
    <g text-rendering="geometricPrecision" stroke-miterlimit="1.45" shape-rendering="geometricPrecision" transform="matrix(2,0,0,2,-56,334)" stroke-linecap="butt">
      <rect x="90" y="-38" clip-path="url(#clipPath2)" fill="none" width="85" rx="4" ry="4" height="92"/>
      <text x="107.2139" xml:space="preserve" y="-8.6641" clip-path="url(#clipPath2)" font-family="sans-serif" stroke="none">L -&gt; *•R</text>
      <text x="110.1055" xml:space="preserve" y="5.4688" clip-path="url(#clipPath2)" font-family="sans-serif" stroke="none">R -&gt; •L</text>
      <text x="107.2139" xml:space="preserve" y="19.6016" clip-path="url(#clipPath2)" font-family="sans-serif" stroke="none">L -&gt; •*R</text>
      <text x="108.3887" xml:space="preserve" y="33.7344" clip-path="url(#clipPath2)" font-family="sans-serif" stroke="none">L -&gt; •id</text>
      <text x="127.8229" xml:space="preserve" y="-22.4117" clip-path="url(#clipPath2)" font-family="'GungSeo'" stroke="none">I4</text>
    </g>
    <g fill="rgb(255,204,0)" text-rendering="geometricPrecision" shape-rendering="geometricPrecision" transform="matrix(2,0,0,2,-56,334)" stroke="rgb(255,204,0)">
      <rect x="258" y="-20" clip-path="url(#clipPath2)" width="85" rx="4" ry="4" height="56" stroke="none"/>
    </g>
    <g text-rendering="geometricPrecision" stroke-miterlimit="1.45" shape-rendering="geometricPrecision" transform="matrix(2,0,0,2,-56,334)" stroke-linecap="butt">
      <rect x="258" y="-20" clip-path="url(#clipPath2)" fill="none" width="85" rx="4" ry="4" height="56"/>
      <text x="276.3887" xml:space="preserve" y="12.5352" clip-path="url(#clipPath2)" font-family="sans-serif" stroke="none">L -&gt; id•</text>
      <text x="295.8229" xml:space="preserve" y="-4.4117" clip-path="url(#clipPath2)" font-family="'GungSeo'" stroke="none">I5</text>
    </g>
    <g fill="rgb(255,204,0)" text-rendering="geometricPrecision" shape-rendering="geometricPrecision" transform="matrix(2,0,0,2,-56,334)" stroke="rgb(255,204,0)">
      <rect x="90" y="446" clip-path="url(#clipPath2)" width="85" rx="4" ry="4" height="92" stroke="none"/>
    </g>
    <g text-rendering="geometricPrecision" stroke-miterlimit="1.45" shape-rendering="geometricPrecision" transform="matrix(2,0,0,2,-56,334)" stroke-linecap="butt">
      <rect x="90" y="446" clip-path="url(#clipPath2)" fill="none" width="85" rx="4" ry="4" height="92"/>
      <text x="98.3076" xml:space="preserve" y="475.3359" clip-path="url(#clipPath2)" font-family="sans-serif" stroke="none">S -&gt; L =• R</text>
      <text x="110.1055" xml:space="preserve" y="489.4688" clip-path="url(#clipPath2)" font-family="sans-serif" stroke="none">R -&gt; •L</text>
      <text x="107.2139" xml:space="preserve" y="503.6016" clip-path="url(#clipPath2)" font-family="sans-serif" stroke="none">L -&gt; •*R</text>
      <text x="108.3887" xml:space="preserve" y="517.7344" clip-path="url(#clipPath2)" font-family="sans-serif" stroke="none">L -&gt; •id</text>
      <text x="127.8229" xml:space="preserve" y="461.5883" clip-path="url(#clipPath2)" font-family="'GungSeo'" stroke="none">I6</text>
    </g>
    <g fill="rgb(255,204,0)" text-rendering="geometricPrecision" shape-rendering="geometricPrecision" transform="matrix(2,0,0,2,-56,334)" stroke="rgb(255,204,0)">
      <rect x="90" y="-159" clip-path="url(#clipPath2)" width="85" rx="4" ry="4" height="56" stroke="none"/>
    </g>
    <g text-rendering="geometricPrecision" stroke-miterlimit="1.45" shape-rendering="geometricPrecision" transform="matrix(2,0,0,2,-56,334)" stroke-linecap="butt">
      <rect x="90" y="-159" clip-path="url(#clipPath2)" fill="none" width="85" rx="4" ry="4" height="56"/>
      <text x="107.2139" xml:space="preserve" y="-126.4648" clip-path="url(#clipPath2)" font-family="sans-serif" stroke="none">L -&gt; *R•</text>
      <text x="127.8229" xml:space="preserve" y="-143.4117" clip-path="url(#clipPath2)" font-family="'GungSeo'" stroke="none">I7</text>
    </g>
    <g fill="rgb(255,204,0)" text-rendering="geometricPrecision" shape-rendering="geometricPrecision" transform="matrix(2,0,0,2,-56,334)" stroke="rgb(255,204,0)">
      <rect x="258" y="-159" clip-path="url(#clipPath2)" width="85" rx="4" ry="4" height="56" stroke="none"/>
    </g>
    <g text-rendering="geometricPrecision" stroke-miterlimit="1.45" shape-rendering="geometricPrecision" transform="matrix(2,0,0,2,-56,334)" stroke-linecap="butt">
      <rect x="258" y="-159" clip-path="url(#clipPath2)" fill="none" width="85" rx="4" ry="4" height="56"/>
      <text x="278.1055" xml:space="preserve" y="-126.4648" clip-path="url(#clipPath2)" font-family="sans-serif" stroke="none">R -&gt; L•</text>
      <text x="295.8229" xml:space="preserve" y="-143.4117" clip-path="url(#clipPath2)" font-family="'GungSeo'" stroke="none">I8</text>
    </g>
    <g fill="rgb(255,204,0)" text-rendering="geometricPrecision" shape-rendering="geometricPrecision" transform="matrix(2,0,0,2,-56,334)" stroke="rgb(255,204,0)">
      <rect x="261" y="468" clip-path="url(#clipPath2)" width="79" rx="4" ry="4" height="48" stroke="none"/>
    </g>
    <g text-rendering="geometricPrecision" stroke-miterlimit="1.45" shape-rendering="geometricPrecision" transform="matrix(2,0,0,2,-56,334)" stroke-linecap="butt">
      <rect x="261" y="468" clip-path="url(#clipPath2)" fill="none" width="79" rx="4" ry="4" height="48"/>
      <text x="270.1045" xml:space="preserve" y="496.5352" clip-path="url(#clipPath2)" font-family="sans-serif" stroke="none">S -&gt; L=R•</text>
      <text x="295.8229" xml:space="preserve" y="483.5883" clip-path="url(#clipPath2)" font-family="'GungSeo'" stroke="none">I9</text>
      <path fill="none" d="M175.0332 180.5 L256.0178 180.5" clip-path="url(#clipPath2)"/>
      <path d="M264.0178 180.5 L252.0178 175.5 L255.0178 180.5 L252.0178 185.5 Z" clip-path="url(#clipPath2)" stroke="none"/>
      <text x="216.2686" xml:space="preserve" y="155.0352" clip-path="url(#clipPath2)" font-family="sans-serif" stroke="none">S</text>
      <path fill="none" d="M132.5 241.9949 L132.5 310.0015" clip-path="url(#clipPath2)"/>
      <path d="M132.5 318.0015 L137.5 306.0015 L132.5 309.0015 L127.5 306.0015 Z" clip-path="url(#clipPath2)" stroke="none"/>
      <text x="99.3008" xml:space="preserve" y="284.5352" clip-path="url(#clipPath2)" font-family="sans-serif" stroke="none">L</text>
      <path fill="none" d="M175.0127 223.7719 L271.3339 321.8131" clip-path="url(#clipPath2)"/>
      <path d="M276.9405 327.5198 L272.0973 315.4557 L270.6331 321.0998 L264.964 322.4639 Z" clip-path="url(#clipPath2)" stroke="none"/>
      <text x="243.5667" xml:space="preserve" y="259.14" clip-path="url(#clipPath2)" font-family="sans-serif" stroke="none">R</text>
      <path fill="none" d="M132.5 118.9711 L132.5 61.9761" clip-path="url(#clipPath2)"/>
      <path d="M132.5 53.9761 L127.5 65.9761 L132.5 62.9761 L137.5 65.9761 Z" clip-path="url(#clipPath2)" stroke="none"/>
      <text x="99.6084" xml:space="preserve" y="91.0352" clip-path="url(#clipPath2)" font-family="sans-serif" stroke="none">*</text>
      <path fill="none" d="M91.8508 -37.3493 L91.5322 -37.3979 L86.8665 -37.6335 L82.2007 -37.3979 L77.6697 -36.7064 L73.2965 -35.5819 L69.1039 -34.0474 L65.1148 -32.1258 L61.3523 -29.84 L57.8393 -27.213 L54.5987 -24.2678 L51.6534 -21.0272 L49.0264 -17.5141 L46.7407 -13.7516 L44.8191 -9.7626 L43.2846 -5.57 L42.1601 -1.1967 L41.4686 3.3342 L41.233 8 L41.4686 12.6658 L42.1601 17.1967 L43.2846 21.57 L44.8191 25.7626 L46.7407 29.7516 L49.0264 33.5141 L51.6534 37.0272 L54.5987 40.2678 L57.8393 43.213 L61.3523 45.84 L65.1148 48.1258 L69.1039 50.0474 L73.2965 51.5819 L77.6697 52.7064 L82.2007 53.3979 L83.8519 53.4813 L83.9518 53.4756" clip-path="url(#clipPath2)"/>
      <path d="M91.9507 53.3477 L79.8723 48.5402 L82.9519 53.4916 L80.0322 58.5389 Z" clip-path="url(#clipPath2)" stroke="none"/>
      <rect x="36.3414" y="-1.0664" clip-path="url(#clipPath2)" fill="white" width="9.7832" height="18.1328" stroke="none"/>
      <text x="38.3414" xml:space="preserve" y="12.5352" clip-path="url(#clipPath2)" font-family="sans-serif" stroke="none">*</text>
      <path fill="none" d="M175.0127 136.8486 L267.6212 41.7595" clip-path="url(#clipPath2)"/>
      <path d="M273.2028 36.0283 L261.2485 41.1365 L266.9235 42.4758 L268.4124 48.1135 Z" clip-path="url(#clipPath2)" stroke="none"/>
      <text x="199.3431" xml:space="preserve" y="67.7449" clip-path="url(#clipPath2)" font-family="sans-serif" stroke="none">id</text>
      <path fill="none" d="M175.0332 8 L250.0141 8" clip-path="url(#clipPath2)"/>
      <path d="M258.014 8 L246.014 3 L249.014 8 L246.014 13 Z" clip-path="url(#clipPath2)" stroke="none"/>
      <rect x="208.9893" y="-1.0664" clip-path="url(#clipPath2)" fill="white" width="15.0215" height="18.1328" stroke="none"/>
      <text x="210.9893" xml:space="preserve" y="12.5352" clip-path="url(#clipPath2)" font-family="sans-serif" stroke="none">id</text>
      <path fill="none" d="M132.5 385.0128 L132.5 438.0028" clip-path="url(#clipPath2)"/>
      <path d="M132.5 446.0028 L137.5 434.0028 L132.5 437.0028 L127.5 434.0028 Z" clip-path="url(#clipPath2)" stroke="none"/>
      <text x="97.7305" xml:space="preserve" y="420.0352" clip-path="url(#clipPath2)" font-family="sans-serif" stroke="none">=</text>
      <path fill="none" d="M175.0262 485.6309 L205.2945 478.2788 L238.269 466.582 L268.9417 452.0298 L297.2977 434.8987 L323.322 415.4652 L346.9997 394.0059 L368.3157 370.7973 L387.2551 346.116 L403.8029 320.2385 L417.9442 293.4413 L429.6641 266.0009 L438.9474 238.194 L445.7794 210.297 L450.1449 182.5865 L452.0291 155.339 L451.417 128.831 L448.2936 103.339 L442.6439 79.1397 L434.453 56.5096 L423.706 35.7251 L410.3878 17.0628 L394.4834 0.7993 L375.978 -12.7889 L354.8566 -23.4253 L331.1041 -30.8333 L304.7057 -34.7365 L275.6463 -34.8582 L243.911 -30.9219 L209.4848 -22.6512 L182.558 -13.3097" clip-path="url(#clipPath2)"/>
      <path d="M174.9999 -10.6877 L187.9758 -9.897 L183.5028 -13.6375 L184.6983 -19.3446 Z" clip-path="url(#clipPath2)" stroke="none"/>
      <text x="439.5941" xml:space="preserve" y="182.137" clip-path="url(#clipPath2)" font-family="sans-serif" stroke="none">*</text>
      <path fill="none" d="M174.9977 482.2592 L189.7115 478.2788 L215.1884 469.7068 L238.6524 460.0752 L260.1581 449.4451 L279.7603 437.8775 L297.5138 425.4335 L313.4731 412.174 L327.693 398.1601 L340.2281 383.4529 L351.1334 368.1133 L360.4633 352.2023 L368.2726 335.7812 L374.6161 318.9108 L379.5484 301.6521 L383.1243 284.0663 L385.3983 266.2144 L386.4254 248.1574 L386.2601 229.9562 L384.9572 211.6721 L379.1573 175.0987 L369.4633 138.9255 L356.313 103.6408 L340.1439 69.7328 L324.3803 42.7938 L324.3228 42.7121" clip-path="url(#clipPath2)"/>
      <path d="M320.1376 35.8941 L322.1541 48.7368 L324.8459 43.5643 L330.6765 43.5053 Z" clip-path="url(#clipPath2)" stroke="none"/>
      <rect x="363.2976" y="139.4738" clip-path="url(#clipPath2)" fill="white" width="15.0215" height="18.1328" stroke="none"/>
      <text x="365.2976" xml:space="preserve" y="153.0754" clip-path="url(#clipPath2)" font-family="sans-serif" stroke="none">id</text>
      <path fill="none" d="M132.5 -37.9827 L132.5 -94.9767" clip-path="url(#clipPath2)"/>
      <path d="M132.5 -102.9767 L127.5 -90.9767 L132.5 -93.9767 L137.5 -90.9767 Z" clip-path="url(#clipPath2)" stroke="none"/>
      <text x="98.7061" xml:space="preserve" y="-65.9648" clip-path="url(#clipPath2)" font-family="sans-serif" stroke="none">R</text>
      <path fill="none" d="M175.0127 -27.1742 L260.4828 -97.8906" clip-path="url(#clipPath2)"/>
      <path d="M266.6466 -102.9904 L254.2136 -99.193 L259.7124 -97.2531 L260.5883 -91.4883 Z" clip-path="url(#clipPath2)" stroke="none"/>
      <text x="199.5866" xml:space="preserve" y="-84.5551" clip-path="url(#clipPath2)" font-family="sans-serif" stroke="none">L</text>
      <path fill="none" d="M175.0265 510.8577 L178.1385 512.1318 L199.8281 519.6177 L220.7713 525.4545 L240.9732 529.6953 L260.4386 532.3934 L279.1726 533.6018 L297.1802 533.3739 L314.4664 531.7628 L331.0362 528.8215 L346.8945 524.6035 L362.0465 519.1617 L376.497 512.5494 L390.2511 504.8198 L403.3138 496.0261 L415.6901 486.2213 L427.385 475.4588 L438.4034 463.7917 L458.4311 437.9563 L475.813 409.1406 L490.5892 377.7701 L502.7997 344.27 L512.4844 309.066 L519.6835 272.5834 L524.4368 235.2476 L526.7843 197.4841 L526.7661 159.7184 L524.4221 122.3758 L519.7922 85.8817 L512.9166 50.6617 L503.8352 17.1411 L492.588 -14.2546 L479.215 -43.0999 L463.7561 -68.9696 L446.2514 -91.438 L426.7409 -110.0799 L416.2459 -117.8329 L405.2645 -124.4697 L393.8015 -129.9372 L381.8622 -134.1821 L369.4513 -137.1513 L356.574 -138.7915 L350.9917 -138.8996 L350.8921 -138.8911" clip-path="url(#clipPath2)"/>
      <path d="M342.8933 -139.0308 L354.8041 -133.822 L351.8919 -138.8736 L354.9788 -143.8205 Z" clip-path="url(#clipPath2)" stroke="none"/>
      <text x="506.6617" xml:space="preserve" y="181.2989" clip-path="url(#clipPath2)" font-family="sans-serif" stroke="none">L</text>
      <path fill="none" d="M175.0332 492 L253.0159 492" clip-path="url(#clipPath2)"/>
      <path d="M261.0159 492 L249.0159 487 L252.0159 492 L249.0159 497 Z" clip-path="url(#clipPath2)" stroke="none"/>
      <rect x="212.2061" y="482.9336" clip-path="url(#clipPath2)" fill="white" width="11.5879" height="18.1328" stroke="none"/>
      <text x="214.2061" xml:space="preserve" y="496.5352" clip-path="url(#clipPath2)" font-family="sans-serif" stroke="none">R</text>
    </g>
  </g>
</svg>
