<svg width="1032" height="1032" viewBox="0 0 1032 1032" fill="none" xmlns="http://www.w3.org/2000/svg">
<g filter="url(#filter0_d_1_28)">
<circle cx="516" cy="512" r="511.5" fill="#D9D9D9" stroke="black"/>
<path d="M406.92 81.424H421.716V84.124H406.92V81.424ZM391.836 98.488H424.164V101.188H391.836V98.488ZM405.372 70.3H408.216V99.928H405.372V70.3ZM427.98 72.424H460.02V75.16H427.98V72.424ZM441.84 74.584H444.684V102.844H441.84V74.584ZM443.424 83.116L445.188 81.028C449.508 83.116 455.196 86.392 458.076 88.552L456.168 91C453.396 88.768 447.78 85.348 443.424 83.116ZM488.064 77.248L490.908 78.076C486.372 91.288 478.2 98.704 465.096 102.952C464.808 102.268 463.944 100.972 463.368 100.324C476.22 96.652 484.032 89.596 488.064 77.248ZM471.72 77.428C475.608 88.948 483.708 97.228 496.704 100.252C496.056 100.9 495.192 102.124 494.76 102.916C481.404 99.424 473.484 90.856 469.056 78.256L471.72 77.428ZM463.8 75.88H496.344V78.544H463.8V75.88ZM478.56 69.76H481.332V77.5H478.56V69.76ZM499.872 82.828H532.164V85.42H499.872V82.828ZM502.104 72.172H530.076V74.764H502.104V72.172ZM516.396 86.896H519.204V98.38C519.204 99.604 519.564 99.856 521.472 99.856C522.3 99.856 526.692 99.856 527.844 99.856C529.644 99.856 529.896 99.064 530.112 94.096C530.76 94.6 531.984 95.068 532.74 95.212C532.344 101.008 531.516 102.52 528.024 102.52C527.196 102.52 521.976 102.52 521.184 102.52C517.44 102.52 516.396 101.62 516.396 98.38V86.896ZM514.128 73.216H516.864C516.612 87.112 516.252 98.056 501.168 102.988C500.844 102.268 500.052 101.26 499.44 100.684C513.948 96.256 513.948 86.212 514.128 73.216ZM541.38 77.896H562.548V80.488H541.38V77.896ZM540.048 86.68H564.024V89.236H540.048V86.68ZM553.296 87.544C554.952 93.88 558.66 98.596 564.852 100.504C564.204 101.08 563.412 102.16 563.016 102.88C556.572 100.54 552.828 95.356 550.956 88.048L553.296 87.544ZM558.624 69.832L561.432 70.804C560.136 73.108 558.552 75.772 557.292 77.464L555.096 76.564C556.284 74.764 557.796 71.848 558.624 69.832ZM542.856 71.308L545.052 70.192C546.564 72.028 548.148 74.584 548.796 76.276L546.456 77.572C545.844 75.844 544.296 73.216 542.856 71.308ZM550.38 78.508H553.188V85.996C553.188 91.54 551.856 98.416 540.804 103.024C540.408 102.376 539.58 101.44 538.932 100.9C549.66 96.832 550.38 90.64 550.38 85.996V78.508ZM596.064 77.248L598.908 78.076C594.372 91.288 586.2 98.704 573.096 102.952C572.808 102.268 571.944 100.972 571.368 100.324C584.22 96.652 592.032 89.596 596.064 77.248ZM579.72 77.428C583.608 88.948 591.708 97.228 604.704 100.252C604.056 100.9 603.192 102.124 602.76 102.916C589.404 99.424 581.484 90.856 577.056 78.256L579.72 77.428ZM571.8 75.88H604.344V78.544H571.8V75.88ZM586.56 69.76H589.332V77.5H586.56V69.76ZM617.052 84.916H640.2V87.472H617.052V84.916ZM618.888 75.664H638.508V78.256H618.888V75.664ZM627.132 69.796H629.904V86.752H627.132V69.796ZM617.088 98.488C621.984 98.272 629.832 97.84 637.284 97.408V99.856C630.12 100.396 622.596 100.9 617.484 101.224L617.088 98.488ZM631.596 92.332L633.9 91.144C636.636 94.348 639.624 98.632 640.812 101.548L638.292 102.952C637.176 100.108 634.296 95.608 631.596 92.332ZM624.72 86.608L627.636 87.436C626.052 91.612 623.892 96.76 622.092 100.036L619.716 99.208C621.48 95.86 623.604 90.46 624.72 86.608ZM609.276 72.028L610.788 70.012C613.236 70.912 616.332 72.46 617.88 73.72L616.332 75.988C614.82 74.692 611.796 73 609.276 72.028ZM607.368 81.964L608.772 79.876C611.22 80.668 614.388 82.072 616.008 83.224L614.532 85.492C612.984 84.34 609.888 82.828 607.368 81.964ZM608.628 100.684C610.464 97.912 613.164 93.16 615.144 89.092L617.16 90.784C615.36 94.6 612.984 99.1 610.968 102.448L608.628 100.684Z" fill="black"/>
<circle cx="475" cy="562" r="449.5" stroke="black"/>
<path d="M332.728 216.935H346.228V219.419H332.728V216.935ZM336.688 227.663H345.004V243.107H336.688V240.659H342.52V230.075H336.688V227.663ZM337.408 218.015L340 218.375C338.884 225.971 336.976 233.027 333.664 237.707C333.376 237.167 332.512 235.943 331.972 235.367C334.96 231.263 336.508 224.819 337.408 218.015ZM335.5 227.663H337.912V246.131H335.5V227.663ZM349 236.807H363.04V239.183H349V236.807ZM349.18 230.435H363.004V232.595H349.18V230.435ZM349.18 224.171H363.004V226.511H349.18V224.171ZM354.688 225.251H357.1V237.815H354.688V225.251ZM361.744 224.171H364.336V244.979C364.336 246.491 364.048 247.283 363.004 247.679C362.032 248.147 360.304 248.183 357.82 248.183C357.712 247.427 357.352 246.311 356.992 245.591C358.828 245.663 360.592 245.663 361.096 245.663C361.6 245.627 361.744 245.483 361.744 244.979V224.171ZM347.74 224.171H350.224V233.711C350.224 238.211 349.576 244.223 345.76 248.183C345.4 247.679 344.356 246.779 343.816 246.455C347.308 242.855 347.74 237.743 347.74 233.675V224.171ZM351.7 214.955L354.184 215.567C352.528 220.247 349.864 224.819 347.02 227.771C346.588 227.339 345.58 226.403 345.004 226.007C347.776 223.343 350.26 219.167 351.7 214.955ZM351.7 217.979H358.936V220.247H350.584L351.7 217.979ZM358.108 217.979H358.72L359.116 217.835L360.88 219.023C359.836 221.291 358.108 223.919 356.776 225.611C356.308 225.251 355.48 224.747 354.904 224.423C356.092 222.839 357.496 220.247 358.108 218.483V217.979ZM374.596 225.971H395.584V228.563H374.596V225.971ZM384.964 234.575H397.096V237.131H384.964V234.575ZM383.524 227.303H386.332V245.519L383.524 245.159V227.303ZM374.992 231.659L377.8 231.947C376.792 239.219 374.524 244.727 370.456 248.255C370.024 247.787 368.872 246.851 368.224 246.455C372.256 243.323 374.2 238.175 374.992 231.659ZM376.684 236.303C379.24 243.647 384.856 244.907 392.164 244.907C393.496 244.907 399.724 244.907 401.488 244.871C401.056 245.519 400.588 246.815 400.48 247.607H392.02C383.452 247.607 377.584 245.915 374.488 237.131L376.684 236.303ZM383.488 214.991H386.332V220.823H383.488V214.991ZM369.952 219.095H400.048V226.943H397.276V221.687H372.616V226.943H369.952V219.095ZM409.156 214.955H411.892V248.039H409.156V214.955ZM405.844 221.795L407.896 222.119C407.716 225.035 407.068 229.211 406.096 231.803L403.972 231.083C404.944 228.671 405.592 224.711 405.844 221.795ZM412.144 221.579L414.016 220.751C415.132 222.695 416.248 225.251 416.644 226.799L414.628 227.807C414.232 226.223 413.152 223.595 412.144 221.579ZM419.488 216.647L422.116 217.079C421.18 222.335 419.596 227.447 417.58 230.831C417.04 230.435 415.816 229.859 415.132 229.571C417.256 226.403 418.696 221.507 419.488 216.647ZM419.524 222.587H436.264V225.179H418.696L419.524 222.587ZM425.356 215.099H428.056V245.699H425.356V215.099ZM417.688 232.667H435.472V235.223H417.688V232.667ZM414.988 244.223H437.128V246.815H414.988V244.223ZM455.92 226.619H470.716V229.319H455.92V226.619ZM440.836 243.683H473.164V246.383H440.836V243.683ZM454.372 215.495H457.216V245.123H454.372V215.495ZM476.98 217.619H509.02V220.355H476.98V217.619ZM490.84 219.779H493.684V248.039H490.84V219.779ZM492.424 228.311L494.188 226.223C498.508 228.311 504.196 231.587 507.076 233.747L505.168 236.195C502.396 233.963 496.78 230.543 492.424 228.311ZM537.064 222.443L539.908 223.271C535.372 236.483 527.2 243.899 514.096 248.147C513.808 247.463 512.944 246.167 512.368 245.519C525.22 241.847 533.032 234.791 537.064 222.443ZM520.72 222.623C524.608 234.143 532.708 242.423 545.704 245.447C545.056 246.095 544.192 247.319 543.76 248.111C530.404 244.619 522.484 236.051 518.056 223.451L520.72 222.623ZM512.8 221.075H545.344V223.739H512.8V221.075ZM527.56 214.955H530.332V222.695H527.56V214.955ZM548.872 228.023H581.164V230.615H548.872V228.023ZM551.104 217.367H579.076V219.959H551.104V217.367ZM565.396 232.091H568.204V243.575C568.204 244.799 568.564 245.051 570.472 245.051C571.3 245.051 575.692 245.051 576.844 245.051C578.644 245.051 578.896 244.259 579.112 239.291C579.76 239.795 580.984 240.263 581.74 240.407C581.344 246.203 580.516 247.715 577.024 247.715C576.196 247.715 570.976 247.715 570.184 247.715C566.44 247.715 565.396 246.815 565.396 243.575V232.091ZM563.128 218.411H565.864C565.612 232.307 565.252 243.251 550.168 248.183C549.844 247.463 549.052 246.455 548.44 245.879C562.948 241.451 562.948 231.407 563.128 218.411ZM590.38 223.091H611.548V225.683H590.38V223.091ZM589.048 231.875H613.024V234.431H589.048V231.875ZM602.296 232.739C603.952 239.075 607.66 243.791 613.852 245.699C613.204 246.275 612.412 247.355 612.016 248.075C605.572 245.735 601.828 240.551 599.956 233.243L602.296 232.739ZM607.624 215.027L610.432 215.999C609.136 218.303 607.552 220.967 606.292 222.659L604.096 221.759C605.284 219.959 606.796 217.043 607.624 215.027ZM591.856 216.503L594.052 215.387C595.564 217.223 597.148 219.779 597.796 221.471L595.456 222.767C594.844 221.039 593.296 218.411 591.856 216.503ZM599.38 223.703H602.188V231.191C602.188 236.735 600.856 243.611 589.804 248.219C589.408 247.571 588.58 246.635 587.932 246.095C598.66 242.027 599.38 235.835 599.38 231.191V223.703ZM465.064 265.443L467.908 266.271C463.372 279.483 455.2 286.899 442.096 291.147C441.808 290.463 440.944 289.167 440.368 288.519C453.22 284.847 461.032 277.791 465.064 265.443ZM448.72 265.623C452.608 277.143 460.708 285.423 473.704 288.447C473.056 289.095 472.192 290.319 471.76 291.111C458.404 287.619 450.484 279.051 446.056 266.451L448.72 265.623ZM440.8 264.075H473.344V266.739H440.8V264.075ZM455.56 257.955H458.332V265.695H455.56V257.955ZM486.052 273.111H509.2V275.667H486.052V273.111ZM487.888 263.859H507.508V266.451H487.888V263.859ZM496.132 257.991H498.904V274.947H496.132V257.991ZM486.088 286.683C490.984 286.467 498.832 286.035 506.284 285.603V288.051C499.12 288.591 491.596 289.095 486.484 289.419L486.088 286.683ZM500.596 280.527L502.9 279.339C505.636 282.543 508.624 286.827 509.812 289.743L507.292 291.147C506.176 288.303 503.296 283.803 500.596 280.527ZM493.72 274.803L496.636 275.631C495.052 279.807 492.892 284.955 491.092 288.231L488.716 287.403C490.48 284.055 492.604 278.655 493.72 274.803ZM478.276 260.223L479.788 258.207C482.236 259.107 485.332 260.655 486.88 261.915L485.332 264.183C483.82 262.887 480.796 261.195 478.276 260.223ZM476.368 270.159L477.772 268.071C480.22 268.863 483.388 270.267 485.008 271.419L483.532 273.687C481.984 272.535 478.888 271.023 476.368 270.159ZM477.628 288.879C479.464 286.107 482.164 281.355 484.144 277.287L486.16 278.979C484.36 282.795 481.984 287.295 479.968 290.643L477.628 288.879Z" fill="black"/>
<circle cx="557" cy="578" r="255.5" stroke="black"/>
<path d="M519.867 367.84V342.64H523.287V364.78H534.843V367.84H519.867ZM538.254 367.84V342.64H541.674V364.78H553.23V367.84H538.254ZM560.204 372.268C558.716 369.628 557.552 367.012 556.712 364.42C555.872 361.804 555.452 359.104 555.452 356.32C555.452 353.32 555.872 350.548 556.712 348.004C557.576 345.436 558.74 342.892 560.204 340.372L562.112 341.452C561.224 343.468 560.456 345.724 559.808 348.22C559.184 350.692 558.872 353.392 558.872 356.32C558.872 359.224 559.184 361.912 559.808 364.384C560.456 366.856 561.224 369.124 562.112 371.188L560.204 372.268ZM579.997 368.2L570.313 358.228V367.84H567.073V341.2H570.313V356.428L578.773 348.76L580.645 350.812L573.409 357.22L582.229 366.04L579.997 368.2ZM586.576 372.268L584.668 371.188C585.58 369.124 586.348 366.856 586.972 364.384C587.596 361.912 587.908 359.224 587.908 356.32C587.908 353.392 587.596 350.692 586.972 348.22C586.348 345.724 585.58 343.468 584.668 341.452L586.576 340.372C588.064 342.892 589.228 345.436 590.068 348.004C590.908 350.548 591.328 353.32 591.328 356.32C591.328 359.104 590.908 361.804 590.068 364.42C589.228 367.012 588.064 369.628 586.576 372.268Z" fill="black"/>
<circle cx="583" cy="590" r="213.5" stroke="black"/>
<path d="M546.267 438.96V413.76H549.687V435.9H561.243V438.96H546.267ZM564.654 438.96V413.76H568.074V435.9H579.63V438.96H564.654ZM586.605 443.388C585.117 440.748 583.953 438.132 583.113 435.54C582.273 432.924 581.853 430.224 581.853 427.44C581.853 424.44 582.273 421.668 583.113 419.124C583.977 416.556 585.141 414.012 586.605 411.492L588.513 412.572C587.625 414.588 586.857 416.844 586.209 419.34C585.585 421.812 585.273 424.512 585.273 427.44C585.273 430.344 585.585 433.032 586.209 435.504C586.857 437.976 587.625 440.244 588.513 442.308L586.605 443.388ZM595.778 438.96V436.08H600.926V417.9L596.102 421.536L594.338 419.124L601.79 413.76H604.166V436.08H608.45V438.96H595.778ZM616.176 443.388L614.268 442.308C615.18 440.244 615.948 437.976 616.572 435.504C617.196 433.032 617.508 430.344 617.508 427.44C617.508 424.512 617.196 421.812 616.572 419.34C615.948 416.844 615.18 414.588 614.268 412.572L616.176 411.492C617.664 414.012 618.828 416.556 619.668 419.124C620.508 421.668 620.928 424.44 620.928 427.44C620.928 430.224 620.508 432.924 619.668 435.54C618.828 438.132 617.664 440.748 616.176 443.388Z" fill="black"/>
<path d="M582.5 564C582.5 712.851 464.517 833.5 319 833.5C173.484 833.5 55.5 712.851 55.5 564C55.5 415.149 173.484 294.5 319 294.5C464.517 294.5 582.5 415.149 582.5 564Z" stroke="black"/>
<path d="M278.857 352.144V326.944H282.277V349.084H293.833V352.144H278.857ZM311.932 352.576L308.8 345.736C308.008 344.032 307.012 342.82 305.812 342.1C304.612 341.38 303.076 341.02 301.204 341.02H300.664V352.144H297.244V327.016C298.516 326.896 299.728 326.812 300.88 326.764C302.056 326.692 303.304 326.656 304.624 326.656C307.696 326.656 310 327.28 311.536 328.528C313.096 329.776 313.876 331.384 313.876 333.352C313.876 335.104 313.348 336.52 312.292 337.6C311.26 338.656 309.76 339.448 307.792 339.976C308.44 340.264 309.016 340.612 309.52 341.02C310.024 341.404 310.504 341.932 310.96 342.604C311.44 343.252 311.92 344.104 312.4 345.16L315.136 351.064L311.932 352.576ZM300.664 338.14H304.624C306.352 338.14 307.756 337.756 308.836 336.988C309.916 336.22 310.456 335.116 310.456 333.676C310.456 332.476 309.952 331.492 308.944 330.724C307.936 329.932 306.496 329.536 304.624 329.536C303.808 329.536 303.076 329.548 302.428 329.572C301.78 329.596 301.192 329.632 300.664 329.68V338.14ZM323.027 356.572C321.539 353.932 320.375 351.316 319.535 348.724C318.695 346.108 318.275 343.408 318.275 340.624C318.275 337.624 318.695 334.852 319.535 332.308C320.399 329.74 321.563 327.196 323.027 324.676L324.935 325.756C324.047 327.772 323.279 330.028 322.631 332.524C322.007 334.996 321.695 337.696 321.695 340.624C321.695 343.528 322.007 346.216 322.631 348.688C323.279 351.16 324.047 353.428 324.935 355.492L323.027 356.572ZM342.82 352.504L333.136 342.532V352.144H329.896V325.504H333.136V340.732L341.596 333.064L343.468 335.116L336.232 341.524L345.052 350.344L342.82 352.504ZM349.398 356.572L347.49 355.492C348.402 353.428 349.17 351.16 349.794 348.688C350.418 346.216 350.73 343.528 350.73 340.624C350.73 337.696 350.418 334.996 349.794 332.524C349.17 330.028 348.402 327.772 347.49 325.756L349.398 324.676C350.886 327.196 352.05 329.74 352.89 332.308C353.73 334.852 354.15 337.624 354.15 340.624C354.15 343.408 353.73 346.108 352.89 348.724C352.05 351.316 350.886 353.932 349.398 356.572Z" fill="black"/>
<path d="M556.5 565.5C556.5 674.292 466.741 762.5 356 762.5C245.259 762.5 155.5 674.292 155.5 565.5C155.5 456.708 245.259 368.5 356 368.5C466.741 368.5 556.5 456.708 556.5 565.5Z" stroke="black"/>
<path d="M308.706 414.846V389.646H312.126V411.786H323.682V414.846H308.706ZM341.781 415.278L338.649 408.438C337.857 406.734 336.861 405.522 335.661 404.802C334.461 404.082 332.925 403.722 331.053 403.722H330.513V414.846H327.093V389.718C328.365 389.598 329.577 389.514 330.729 389.466C331.905 389.394 333.153 389.358 334.473 389.358C337.545 389.358 339.849 389.982 341.385 391.23C342.945 392.478 343.725 394.086 343.725 396.054C343.725 397.806 343.197 399.222 342.141 400.302C341.109 401.358 339.609 402.15 337.641 402.678C338.289 402.966 338.865 403.314 339.369 403.722C339.873 404.106 340.353 404.634 340.809 405.306C341.289 405.954 341.769 406.806 342.249 407.862L344.985 413.766L341.781 415.278ZM330.513 400.842H334.473C336.201 400.842 337.605 400.458 338.685 399.69C339.765 398.922 340.305 397.818 340.305 396.378C340.305 395.178 339.801 394.194 338.793 393.426C337.785 392.634 336.345 392.238 334.473 392.238C333.657 392.238 332.925 392.25 332.277 392.274C331.629 392.298 331.041 392.334 330.513 392.382V400.842ZM352.876 419.274C351.388 416.634 350.224 414.018 349.384 411.426C348.544 408.81 348.124 406.11 348.124 403.326C348.124 400.326 348.544 397.554 349.384 395.01C350.248 392.442 351.412 389.898 352.876 387.378L354.784 388.458C353.896 390.474 353.128 392.73 352.48 395.226C351.856 397.698 351.544 400.398 351.544 403.326C351.544 406.23 351.856 408.918 352.48 411.39C353.128 413.862 353.896 416.13 354.784 418.194L352.876 419.274ZM362.049 414.846V411.966H367.197V393.786L362.373 397.422L360.609 395.01L368.061 389.646H370.437V411.966H374.721V414.846H362.049ZM382.446 419.274L380.538 418.194C381.45 416.13 382.218 413.862 382.842 411.39C383.466 408.918 383.778 406.23 383.778 403.326C383.778 400.398 383.466 397.698 382.842 395.226C382.218 392.73 381.45 390.474 380.538 388.458L382.446 387.378C383.934 389.898 385.098 392.442 385.938 395.01C386.778 397.554 387.198 400.326 387.198 403.326C387.198 406.11 386.778 408.81 385.938 411.426C385.098 414.018 383.934 416.634 382.446 419.274Z" fill="black"/>
<circle cx="389.5" cy="578.5" r="158" stroke="black"/>
<path d="M351.22 475.19V449.99H354.64V472.13H366.196V475.19H351.22ZM386.923 475.55L384.115 468.35H372.451L369.643 475.478L366.727 474.29L376.591 449.99H380.335L390.055 474.29L386.923 475.55ZM373.531 465.47H382.999L378.283 453.374L373.531 465.47ZM393.654 475.19V449.99H397.074V472.13H408.63V475.19H393.654ZM426.729 475.622L423.597 468.782C422.805 467.078 421.809 465.866 420.609 465.146C419.409 464.426 417.873 464.066 416.001 464.066H415.461V475.19H412.041V450.062C413.313 449.942 414.525 449.858 415.677 449.81C416.853 449.738 418.101 449.702 419.421 449.702C422.493 449.702 424.797 450.326 426.333 451.574C427.893 452.822 428.673 454.43 428.673 456.398C428.673 458.15 428.145 459.566 427.089 460.646C426.057 461.702 424.557 462.494 422.589 463.022C423.237 463.31 423.813 463.658 424.317 464.066C424.821 464.45 425.301 464.978 425.757 465.65C426.237 466.298 426.717 467.15 427.197 468.206L429.933 474.11L426.729 475.622ZM415.461 461.186H419.421C421.149 461.186 422.553 460.802 423.633 460.034C424.713 459.266 425.253 458.162 425.253 456.722C425.253 455.522 424.749 454.538 423.741 453.77C422.733 452.978 421.293 452.582 419.421 452.582C418.605 452.582 417.873 452.594 417.225 452.618C416.577 452.642 415.989 452.678 415.461 452.726V461.186Z" fill="black"/>
<circle cx="461.5" cy="585.5" r="79" stroke="black"/>
<path d="M428.364 568.424H458.172V571.052H428.364V568.424ZM443.952 580.664H456.732V583.328H443.952V580.664ZM426.996 594.668H459.36V597.296H426.996V594.668ZM442.656 569.396H445.464V595.964H442.656V569.396ZM431.928 577.676H434.7V596.072H431.928V577.676ZM472.752 591.896L474.408 590.24C476.64 591.968 479.556 594.452 480.996 596.036L479.268 598.016C477.864 596.396 475.02 593.732 472.752 591.896ZM464.868 567.704H480.384V589.484H477.756V570.152H467.388V589.556H464.868V567.704ZM491.184 566.048H493.812V595.064C493.812 596.936 493.344 597.728 492.192 598.196C491.004 598.628 488.988 598.7 485.676 598.7C485.532 597.944 485.1 596.72 484.668 595.964C487.26 596.036 489.528 596 490.212 596C490.896 595.964 491.184 595.748 491.184 595.064V566.048ZM484.452 569.036H487.008V590.6H484.452V569.036ZM471.24 572.636H473.796V582.896C473.796 588.44 472.5 594.992 464.4 598.952C464.148 598.376 463.284 597.332 462.744 596.936C470.304 593.192 471.24 587.792 471.24 582.86V572.636Z" fill="black"/>
</g>
<defs>
<filter id="filter0_d_1_28" x="0" y="0" width="1032" height="1032" filterUnits="userSpaceOnUse" color-interpolation-filters="sRGB">
<feFlood flood-opacity="0" result="BackgroundImageFix"/>
<feColorMatrix in="SourceAlpha" type="matrix" values="0 0 0 0 0 0 0 0 0 0 0 0 0 0 0 0 0 0 127 0" result="hardAlpha"/>
<feOffset dy="4"/>
<feGaussianBlur stdDeviation="2"/>
<feComposite in2="hardAlpha" operator="out"/>
<feColorMatrix type="matrix" values="0 0 0 0 0 0 0 0 0 0 0 0 0 0 0 0 0 0 0.25 0"/>
<feBlend mode="normal" in2="BackgroundImageFix" result="effect1_dropShadow_1_28"/>
<feBlend mode="normal" in="SourceGraphic" in2="effect1_dropShadow_1_28" result="shape"/>
</filter>
</defs>
</svg>
