<?xml version="1.0" encoding="UTF-8"?>
<svg width="1454px" height="113px" viewBox="0 0 1454 113" version="1.1" xmlns="http://www.w3.org/2000/svg" xmlns:xlink="http://www.w3.org/1999/xlink">
    <!-- Generator: Sketch 45.1 (43504) - http://www.bohemiancoding.com/sketch -->
    <title>Group</title>
    <desc>Created with Sketch.</desc>
    <defs></defs>
    <g id="Page-1" stroke="none" stroke-width="1" fill="none" fill-rule="evenodd">
        <g id="Group" transform="translate(-1.000000, -4.000000)">
            <rect id="Rectangle" fill="#FFA300" x="1.78066343" y="58" width="116.206207" height="59"></rect>
            <rect id="Rectangle" fill="#BFFF00" x="179" y="57" width="506" height="59"></rect>
            <rect id="Rectangle" fill="#00D9FF" x="685" y="57" width="769.830017" height="59"></rect>
            <text id="https://longfangsong" font-family="PingFangSC-Regular, PingFang SC" font-size="48" font-weight="normal" fill="#000000">
                <tspan x="2" y="102">https://longfangsong.github.io/2018/06/02/Docker-cheatsheet/</tspan>
            </text>
            <path d="" id="Path-2" stroke="#979797"></path>
            <path d="M65.5570856,-11.5741185 C63.6386083,-11.5741185 62.1270807,-10.2894625 60.9643672,-7.59168489 C59.8016537,-5.0223729 59.2202969,-1.2968705 59.2202969,3.45635668 L59.2202969,33.9027038 C59.2202969,38.013603 58.8133472,41.0967774 58.0575834,43.0237614 C57.1274126,45.2076766 55.615885,46.363867 53.464865,46.363867 L53.464865,50.4747662 C55.615885,50.4747662 57.1274126,51.502491 58.0575834,53.8148718 C58.8133472,55.7418558 59.2202969,58.8250301 59.2202969,63.0643949 L59.2202969,93.5107421 C59.2202969,98.1355036 59.8016537,101.861006 60.9643672,104.430318 C62.1270807,106.99963 63.6386083,108.412752 65.5570856,108.412752 L68.5220051,108.412752 L68.5220051,105.329577 L65.5570856,105.329577 C62.2433521,105.329577 60.6155532,101.347144 60.6155532,93.5107421 L60.6155532,63.1928605 C60.6155532,55.8703214 59.2202969,50.9886286 56.4297845,48.4193166 C59.2202969,45.8500046 60.6155532,40.8398462 60.6155532,33.6457726 L60.6155532,3.45635668 C60.6155532,-4.5085105 62.2433521,-8.49094409 65.5570856,-8.49094409 L68.5220051,-8.49094409 L68.5220051,-11.5741185 L65.5570856,-11.5741185 Z" id="{" fill="#000000" transform="translate(60.993435, 48.419317) rotate(90.000000) translate(-60.993435, -48.419317) "></path>
            <path d="M441.083461,-213.53562 C439.457946,-213.53562 437.881689,-209.606684 436.896528,-198.110395 C435.911367,-187.161547 434.729175,-169.740231 434.729175,-149.484863 L434.655584,-20.8359077 C434.655584,-3.31775209 433.990304,12.5470622 433.34995,20.7586976 C432.561821,30.0652178 427.538095,40.324991 425.715548,40.324991 L425.715548,43.8043528 C427.538095,43.8043528 432.561821,54.4409228 433.34995,64.2948854 C433.990304,72.5065208 434.729175,87.010238 434.729175,105.075836 L434.729175,234.272234 C434.729175,253.980159 434.729175,270.208421 435.714335,281.157269 C436.699496,292.106116 439.457946,297.775548 441.083461,297.775548 L443.59562,297.775548 L443.59562,290.713291 L441.083461,290.713291 C438.275753,290.713291 436.896528,267.666218 436.896528,234.272234 L436.896528,105.075836 C436.896528,73.8716213 435.714335,53.0688114 433.34995,42.1199642 C435.714335,31.1711169 436.896528,9.82086466 436.896528,-20.8359077 L436.896528,-149.484863 C436.896528,-183.42629 438.275753,-207.563716 441.083461,-207.563716 L443.59562,-207.563716 L443.59562,-213.53562 L441.083461,-213.53562 Z" id="{" fill="#000000" transform="translate(434.655584, 42.119964) rotate(90.000000) translate(-434.655584, -42.119964) "></path>
            <path d="M1073.67063,-340.302777 C1072.04512,-340.302777 1070.46887,-334.42844 1069.48371,-317.239792 C1068.49856,-300.869652 1067.31637,-274.822216 1067.31637,-244.537456 L1067.24278,-52.1883074 C1067.24278,-25.9960828 1066.5775,-2.27584738 1065.93715,10.0017579 C1065.14902,23.9163772 1060.12532,39.2562502 1058.30278,39.2562502 L1058.30278,44.4584089 C1060.12532,44.4584089 1065.14902,60.3616486 1065.93715,75.0947749 C1066.5775,87.3723802 1067.31637,109.057575 1067.31637,136.068307 L1067.31637,329.235963 C1067.31637,358.702215 1067.31637,382.965859 1068.30152,399.335999 C1069.28668,415.70614 1072.04512,424.182777 1073.67063,424.182777 L1076.18278,424.182777 L1076.18278,413.623661 L1073.67063,413.623661 C1070.86293,413.623661 1069.48371,379.164891 1069.48371,329.235963 L1069.48371,136.068307 C1069.48371,89.4134066 1068.30152,58.3101399 1065.93715,41.9399996 C1068.30152,25.5698592 1069.48371,-6.35191443 1069.48371,-52.1883074 L1069.48371,-244.537456 C1069.48371,-295.284891 1070.86293,-331.373901 1073.67063,-331.373901 L1076.18278,-331.373901 L1076.18278,-340.302777 L1073.67063,-340.302777 Z" id="{" fill="#000000" transform="translate(1067.242777, 41.940000) rotate(90.000000) translate(-1067.242777, -41.940000) "></path>
            <text id="协议名" font-family="PingFangSC-Light, PingFang SC" font-size="20" font-weight="300" fill="#000000">
                <tspan x="31" y="34">协议名</tspan>
            </text>
            <text id="主机名" font-family="PingFangSC-Light, PingFang SC" font-size="20" font-weight="300" fill="#000000">
                <tspan x="405" y="26">主机名</tspan>
            </text>
            <text id="文件目录" font-family="PingFangSC-Light, PingFang SC" font-size="20" font-weight="300" fill="#000000">
                <tspan x="1037" y="21">文件目录</tspan>
            </text>
        </g>
    </g>
</svg>