<?xml version="1.0" encoding="UTF-8"?>
<svg width="857px" height="131px" viewBox="0 0 857 131" version="1.1" xmlns="http://www.w3.org/2000/svg" xmlns:xlink="http://www.w3.org/1999/xlink">
    <!-- Generator: Sketch 45.1 (43504) - http://www.bohemiancoding.com/sketch -->
    <title>Group</title>
    <desc>Created with Sketch.</desc>
    <defs></defs>
    <g id="Page-1" stroke="none" stroke-width="1" fill="none" fill-rule="evenodd">
        <g id="Group" transform="translate(-1.000000, -5.000000)">
            <rect id="Rectangle" fill="#0098FF" x="16" y="60" width="39" height="76"></rect>
            <rect id="Rectangle" fill="#00FFB8" x="55" y="60" width="356.25" height="76"></rect>
            <rect id="Rectangle" fill="#FFA200" x="411" y="60" width="446.619971" height="76"></rect>
            <text id="符号位" font-family="PingFangSC-Light, PingFang SC" font-size="24" font-weight="300" fill="#000000">
                <tspan x="0" y="25">符号位</tspan>
            </text>
            <path d="M35.5,32.5 L35.5,59.5" id="Line" stroke="#040404" stroke-linecap="square"></path>
            <path d="M230.208611,-119.401349 L230.208611,-116.742608 L231.867037,-116.742608 C233.15098,-116.742608 233.60571,-90.9789047 233.60571,-70.7840103 L233.60571,10.7435265 C233.60571,32.8083185 235.01197,47.7674996 236.402908,55.2470901 C235.01197,63.4746397 233.60571,78.0598412 233.60571,99.7506537 L233.60571,181.65217 C233.60571,201.473085 233.15098,226.39727 231.867037,226.39727 L230.208611,226.39727 L230.208611,229.895529 L231.867037,229.895529 C232.883492,229.895529 233.685956,225.407775 234.27443,216.432266 C234.809406,207.830737 235.103643,196.237371 235.103643,181.27819 L235.103643,100.498613 C235.103643,88.9052474 235.264136,80.3037183 235.638619,74.6940254 C235.939949,69.8792276 235.850788,61.3346769 237.265738,58.0625925 C237.609241,57.268238 239.030582,55.5025666 239.664267,55.5025666 C239.183344,55.1323331 237.657917,53.2460945 237.265738,52.2695468 C235.843983,48.7293017 235.905389,40.4901345 235.61187,35.8001547 C235.264136,30.1904618 235.103643,21.5889327 235.103643,9.99556741 L235.103643,-70.4100307 C235.103643,-85.3692118 234.809406,-97.3365566 234.27443,-105.938086 C233.685956,-114.913594 232.883492,-119.401349 231.867037,-119.401349 L230.208611,-119.401349 Z" id="}" fill="#000000" transform="translate(234.936439, 55.247090) rotate(-90.000000) translate(-234.936439, -55.247090) "></path>
            <path d="M629.389585,-167.870323 L629.389585,-164.473721 L631.048011,-164.473721 C632.331954,-164.473721 632.786684,-131.559995 632.786684,-105.760551 L632.786684,-1.60724004 C632.786684,26.5810413 634.192944,45.6917405 635.583883,55.2470901 C634.192944,65.7579746 632.786684,84.3909064 632.786684,112.10142 L632.786684,216.732498 C632.786684,242.054175 632.331954,273.895397 631.048011,273.895397 L629.389585,273.895397 L629.389585,278.364503 L631.048011,278.364503 C632.064466,278.364503 632.86693,272.631293 633.455404,261.164874 C633.990381,250.176222 634.284617,235.36543 634.284617,216.254731 L634.284617,113.056955 C634.284617,98.2461633 634.44511,87.2575112 634.819594,80.090999 C635.120924,73.9399837 635.031762,63.0241227 636.446712,58.8439594 C636.790215,57.8291532 638.211557,55.5734673 638.845241,55.5734673 C638.364318,55.1004854 636.838891,52.6907721 636.446712,51.4432098 C635.024958,46.9204649 635.086363,36.3947385 634.792845,30.4031811 C634.44511,23.2366689 634.284617,12.2480169 634.284617,-2.562775 L634.284617,-105.282783 C634.284617,-124.393482 633.990381,-139.682042 633.455404,-150.670694 C632.86693,-162.137113 632.064466,-167.870323 631.048011,-167.870323 L629.389585,-167.870323 Z" id="}" fill="#000000" transform="translate(634.117413, 55.247090) rotate(-90.000000) translate(-634.117413, -55.247090) "></path>
            <text id="指数" font-family="PingFangSC-Light, PingFang SC" font-size="24" font-weight="300" fill="#000000">
                <tspan x="209" y="25">指数</tspan>
            </text>
            <text id="分数值" font-family="PingFangSC-Light, PingFang SC" font-size="24" font-weight="300" fill="#000000">
                <tspan x="598" y="25">分数值</tspan>
            </text>
        </g>
    </g>
</svg>