<?xml version="1.0" encoding="UTF-8"?>
<svg width="263px" height="93px" viewBox="0 0 263 93" version="1.1" xmlns="http://www.w3.org/2000/svg" xmlns:xlink="http://www.w3.org/1999/xlink">
    <!-- Generator: Sketch 45.1 (43504) - http://www.bohemiancoding.com/sketch -->
    <title>Group 2</title>
    <desc>Created with Sketch.</desc>
    <defs>
        <path d="M22.581476,8.38709033 C52.7160517,-2.9219137 113.659761,-2.66876354 143.119779,8.38709033 C172.579797,19.4429442 173.170678,42.3455049 143.119779,53.6231064 C113.06888,64.9007079 52.6641583,64.9126357 22.581476,53.6231064 C-7.50120634,42.3335772 -7.55309979,19.6960944 22.581476,8.38709033 Z" id="path-1"></path>
    </defs>
    <g id="Page-1" stroke="none" stroke-width="1" fill="none" fill-rule="evenodd">
        <g id="Group-2">
            <text id="left" font-family="Helvetica" font-size="12" font-weight="normal" fill="#000000">
                <tspan x="17" y="66">left</tspan>
            </text>
            <text id="middle" font-family="Helvetica" font-size="12" font-weight="normal" fill="#000000">
                <tspan x="111" y="84">mid</tspan>
            </text>
            <text id="right" font-family="Helvetica" font-size="12" font-weight="normal" fill="#000000">
                <tspan x="228" y="66">right</tspan>
            </text>
            <g id="3-node-with-links">
                <g id="Group-2" transform="translate(0.000000, 1.000000)">
                    <g id="3-node" transform="translate(49.000000, 0.000000)">
                        <g id="Group-2" transform="translate(0.000000, -0.162467)">
                            <g id="Rectangle">
                                <use fill-opacity="0.469372736" fill="#6400FF" fill-rule="evenodd" xlink:href="#path-1"></use>
                                <path stroke="#979797" stroke-width="1" d="M22.757154,8.8552113 C-6.9274706,19.9953561 -6.91063053,42.0211604 22.757154,53.1549855 C52.7159786,64.398033 112.995865,64.3940594 142.944101,53.1549855 C172.364401,42.1140374 172.171104,19.8236183 142.944101,8.8552113 C113.372261,-2.24260732 52.5550476,-2.32744155 22.757154,8.8552113 Z"></path>
                            </g>
                            <text id="B" font-family="Helvetica" font-size="24" font-weight="normal" fill="#FFFFFF">
                                <tspan x="36" y="40">B</tspan>
                            </text>
                            <text id="C" font-family="Helvetica" font-size="24" font-weight="normal" fill="#FFFFFF">
                                <tspan x="117" y="39">C</tspan>
                            </text>
                        </g>
                    </g>
                    <path d="M59.5,47.5 L0.5,89.5" id="Line" stroke="#979797" stroke-linecap="square"></path>
                    <path d="M131.5,62.5 L131.5,91.5" id="Line" stroke="#979797" stroke-linecap="square"></path>
                    <path d="M262.5,47.5 L203.5,89.5" id="Line" stroke="#979797" stroke-linecap="square" transform="translate(233.000000, 68.500000) scale(-1, 1) translate(-233.000000, -68.500000) "></path>
                </g>
            </g>
        </g>
    </g>
</svg>