<?xml version="1.0" encoding="UTF-8"?><svg xmlns="http://www.w3.org/2000/svg" xmlns:xlink="http://www.w3.org/1999/xlink" fill-opacity="1" color-rendering="auto" color-interpolation="auto" text-rendering="auto" stroke="black" stroke-linecap="square" width="1075" stroke-miterlimit="10" shape-rendering="auto" stroke-opacity="1" fill="black" stroke-dasharray="none" font-weight="normal" stroke-width="1" height="762" font-family="'Dialog'" font-style="normal" stroke-linejoin="miter" font-size="12px" stroke-dashoffset="0" image-rendering="auto">
  <!--Generated by ySVG 2.5-->
  <defs id="genericDefs"/>
  <g>
    <defs id="defs1">
      <clipPath clipPathUnits="userSpaceOnUse" id="clipPath1">
        <path d="M0 0 L1075 0 L1075 762 L0 762 L0 0 Z"/>
      </clipPath>
      <clipPath clipPathUnits="userSpaceOnUse" id="clipPath2">
        <path d="M20 -747 L1095 -747 L1095 15 L20 15 L20 -747 Z"/>
      </clipPath>
      <clipPath clipPathUnits="userSpaceOnUse" id="clipPath3">
        <path d="M402 -731 L402 -655 L502 -655 L502 -731 Z"/>
      </clipPath>
      <clipPath clipPathUnits="userSpaceOnUse" id="clipPath4">
        <path d="M192 -578 L192 -551 L292 -551 L292 -578 Z"/>
      </clipPath>
      <clipPath clipPathUnits="userSpaceOnUse" id="clipPath5">
        <path d="M173 -420 L173 -331 L310 -331 L310 -420 Z"/>
      </clipPath>
      <clipPath clipPathUnits="userSpaceOnUse" id="clipPath6">
        <path d="M175 -219 L175 -169 L275 -169 L275 -219 Z"/>
      </clipPath>
      <clipPath clipPathUnits="userSpaceOnUse" id="clipPath7">
        <path d="M35 -219 L35 -169 L135 -169 L135 -219 Z"/>
      </clipPath>
      <clipPath clipPathUnits="userSpaceOnUse" id="clipPath8">
        <path d="M315 -239 L315 -150 L445 -150 L445 -239 Z"/>
      </clipPath>
      <clipPath clipPathUnits="userSpaceOnUse" id="clipPath9">
        <path d="M485 -239 L485 -150 L654 -150 L654 -239 Z"/>
      </clipPath>
      <clipPath clipPathUnits="userSpaceOnUse" id="clipPath10">
        <path d="M196 -77 L196 -11 L358 -11 L358 -77 Z"/>
      </clipPath>
      <clipPath clipPathUnits="userSpaceOnUse" id="clipPath11">
        <path d="M398 -89 L398 0 L567 0 L567 -89 Z"/>
      </clipPath>
      <clipPath clipPathUnits="userSpaceOnUse" id="clipPath12">
        <path d="M611 -594 L611 -537 L711 -537 L711 -594 Z"/>
      </clipPath>
      <clipPath clipPathUnits="userSpaceOnUse" id="clipPath13">
        <path d="M350 -408 L350 -342 L428 -342 L428 -408 Z"/>
      </clipPath>
      <clipPath clipPathUnits="userSpaceOnUse" id="clipPath14">
        <path d="M469 -413 L469 -337 L569 -337 L569 -413 Z"/>
      </clipPath>
      <clipPath clipPathUnits="userSpaceOnUse" id="clipPath15">
        <path d="M609 -408 L609 -342 L696 -342 L696 -408 Z"/>
      </clipPath>
      <clipPath clipPathUnits="userSpaceOnUse" id="clipPath16">
        <path d="M737 -413 L737 -337 L824 -337 L824 -413 Z"/>
      </clipPath>
      <clipPath clipPathUnits="userSpaceOnUse" id="clipPath17">
        <path d="M864 -408 L864 -342 L951 -342 L951 -408 Z"/>
      </clipPath>
      <clipPath clipPathUnits="userSpaceOnUse" id="clipPath18">
        <path d="M991 -408 L991 -342 L1078 -342 L1078 -408 Z"/>
      </clipPath>
    </defs>
    <g fill="white" text-rendering="geometricPrecision" shape-rendering="geometricPrecision" transform="translate(-20,747)" stroke="white">
      <rect x="20" width="1075" height="762" y="-747" clip-path="url(#clipPath2)" stroke="none"/>
    </g>
    <g fill="rgb(255,204,0)" text-rendering="geometricPrecision" shape-rendering="geometricPrecision" transform="matrix(1,0,0,1,-20,747)" stroke="rgb(255,204,0)">
      <rect x="403" width="98" height="74" y="-730" clip-path="url(#clipPath2)" stroke="none"/>
      <rect x="402" y="-731" clip-path="url(#clipPath2)" fill="yellow" width="1" height="76" stroke="none"/>
      <rect x="403" y="-731" clip-path="url(#clipPath2)" fill="yellow" width="98" height="1" stroke="none"/>
      <rect x="403" y="-656" clip-path="url(#clipPath2)" fill="rgb(178,142,0)" width="99" height="1" stroke="none"/>
      <rect x="501" y="-731" clip-path="url(#clipPath2)" fill="rgb(178,142,0)" width="1" height="75" stroke="none"/>
    </g>
    <g font-size="13px" stroke-linecap="butt" transform="matrix(1,0,0,1,-20,747)" text-rendering="geometricPrecision" font-family="sans-serif" shape-rendering="geometricPrecision" font-weight="bold" stroke-miterlimit="1.45">
      <text x="421.7772" xml:space="preserve" y="-713.7246" clip-path="url(#clipPath3)" stroke="none">ASTNode</text>
    </g>
    <g text-rendering="geometricPrecision" shape-rendering="geometricPrecision" transform="matrix(1,0,0,1,-20,747)">
      <line y2="-705" fill="none" x1="403" clip-path="url(#clipPath3)" x2="501" y1="-705"/>
      <line y2="-695" fill="none" x1="403" clip-path="url(#clipPath3)" x2="501" y1="-695"/>
      <text stroke-linecap="butt" x="407.0238" y="-679.3809" clip-path="url(#clipPath3)" font-family="sans-serif" stroke="none" stroke-miterlimit="1.45" xml:space="preserve">print_ast_node</text>
      <text stroke-linecap="butt" x="407.0238" y="-665.248" clip-path="url(#clipPath3)" font-family="sans-serif" stroke="none" stroke-miterlimit="1.45" xml:space="preserve">free_node</text>
      <rect x="193" y="-577" clip-path="url(#clipPath2)" fill="rgb(255,204,0)" width="98" height="25" stroke="none"/>
      <rect x="192" y="-578" clip-path="url(#clipPath2)" fill="yellow" width="1" height="27" stroke="none"/>
      <rect x="193" y="-578" clip-path="url(#clipPath2)" fill="yellow" width="98" height="1" stroke="none"/>
      <rect x="193" y="-552" clip-path="url(#clipPath2)" fill="rgb(178,142,0)" width="99" height="1" stroke="none"/>
      <rect x="291" y="-578" clip-path="url(#clipPath2)" fill="rgb(178,142,0)" width="1" height="26" stroke="none"/>
    </g>
    <g font-size="13px" stroke-linecap="butt" transform="matrix(1,0,0,1,-20,747)" text-rendering="geometricPrecision" font-family="sans-serif" shape-rendering="geometricPrecision" font-weight="bold" stroke-miterlimit="1.45">
      <text x="205.5006" xml:space="preserve" y="-561.2678" clip-path="url(#clipPath4)" stroke="none">Expression</text>
    </g>
    <g fill="rgb(255,204,0)" text-rendering="geometricPrecision" shape-rendering="geometricPrecision" transform="matrix(1,0,0,1,-20,747)" stroke="rgb(255,204,0)">
      <rect x="174" width="135" height="87" y="-419" clip-path="url(#clipPath2)" stroke="none"/>
      <rect x="173" y="-420" clip-path="url(#clipPath2)" fill="yellow" width="1" height="89" stroke="none"/>
      <rect x="174" y="-420" clip-path="url(#clipPath2)" fill="yellow" width="135" height="1" stroke="none"/>
      <rect x="174" y="-332" clip-path="url(#clipPath2)" fill="rgb(178,142,0)" width="136" height="1" stroke="none"/>
      <rect x="309" y="-420" clip-path="url(#clipPath2)" fill="rgb(178,142,0)" width="1" height="88" stroke="none"/>
    </g>
    <g font-size="13px" stroke-linecap="butt" transform="matrix(1,0,0,1,-20,747)" text-rendering="geometricPrecision" font-family="sans-serif" shape-rendering="geometricPrecision" font-weight="bold" stroke-miterlimit="1.45">
      <text x="219.1608" xml:space="preserve" y="-402.4316" clip-path="url(#clipPath5)" stroke="none">RValue</text>
    </g>
    <g text-rendering="geometricPrecision" shape-rendering="geometricPrecision" transform="matrix(1,0,0,1,-20,747)">
      <line y2="-394" fill="none" x1="174" clip-path="url(#clipPath5)" x2="309" y1="-394"/>
      <text stroke-linecap="butt" x="178.4012" y="-378.0879" clip-path="url(#clipPath5)" font-family="sans-serif" stroke="none" stroke-miterlimit="1.45" xml:space="preserve">type</text>
      <line y2="-370" fill="none" x1="174" clip-path="url(#clipPath5)" x2="309" y1="-370"/>
      <text stroke-linecap="butt" x="178.4012" y="-353.9551" clip-path="url(#clipPath5)" font-family="sans-serif" stroke="none" stroke-miterlimit="1.45" xml:space="preserve">generate_rvalue_code</text>
      <text stroke-linecap="butt" x="178.4012" y="-339.8223" clip-path="url(#clipPath5)" font-family="sans-serif" stroke="none" stroke-miterlimit="1.45" xml:space="preserve">rvalue_ir</text>
      <rect x="176" y="-218" clip-path="url(#clipPath2)" fill="rgb(255,204,0)" width="98" height="48" stroke="none"/>
      <rect x="175" y="-219" clip-path="url(#clipPath2)" fill="yellow" width="1" height="50" stroke="none"/>
      <rect x="176" y="-219" clip-path="url(#clipPath2)" fill="yellow" width="98" height="1" stroke="none"/>
      <rect x="176" y="-170" clip-path="url(#clipPath2)" fill="rgb(178,142,0)" width="99" height="1" stroke="none"/>
      <rect x="274" y="-219" clip-path="url(#clipPath2)" fill="rgb(178,142,0)" width="1" height="49" stroke="none"/>
    </g>
    <g font-size="13px" stroke-linecap="butt" transform="matrix(1,0,0,1,-20,747)" text-rendering="geometricPrecision" font-family="sans-serif" shape-rendering="geometricPrecision" font-weight="bold" stroke-miterlimit="1.45">
      <text x="194.7153" xml:space="preserve" y="-201.9316" clip-path="url(#clipPath6)" stroke="none">IntLiteral</text>
    </g>
    <g text-rendering="geometricPrecision" shape-rendering="geometricPrecision" transform="matrix(1,0,0,1,-20,747)">
      <line y2="-194" fill="none" x1="176" clip-path="url(#clipPath6)" x2="274" y1="-194"/>
      <text stroke-linecap="butt" x="180" y="-177.5879" clip-path="url(#clipPath6)" font-family="sans-serif" stroke="none" stroke-miterlimit="1.45" xml:space="preserve">value</text>
      <line y2="-170" fill="none" x1="176" clip-path="url(#clipPath6)" x2="274" y1="-170"/>
      <rect x="36" y="-218" clip-path="url(#clipPath2)" fill="rgb(255,204,0)" width="98" height="48" stroke="none"/>
      <rect x="35" y="-219" clip-path="url(#clipPath2)" fill="yellow" width="1" height="50" stroke="none"/>
      <rect x="36" y="-219" clip-path="url(#clipPath2)" fill="yellow" width="98" height="1" stroke="none"/>
      <rect x="36" y="-170" clip-path="url(#clipPath2)" fill="rgb(178,142,0)" width="99" height="1" stroke="none"/>
      <rect x="134" y="-219" clip-path="url(#clipPath2)" fill="rgb(178,142,0)" width="1" height="49" stroke="none"/>
    </g>
    <g font-size="13px" stroke-linecap="butt" transform="matrix(1,0,0,1,-20,747)" text-rendering="geometricPrecision" font-family="sans-serif" shape-rendering="geometricPrecision" font-weight="bold" stroke-miterlimit="1.45">
      <text x="39.9697" xml:space="preserve" y="-201.9316" clip-path="url(#clipPath7)" stroke="none">DoubleLiteral</text>
    </g>
    <g text-rendering="geometricPrecision" shape-rendering="geometricPrecision" transform="matrix(1,0,0,1,-20,747)">
      <line y2="-194" fill="none" x1="36" clip-path="url(#clipPath7)" x2="134" y1="-194"/>
      <text stroke-linecap="butt" x="40" y="-177.5879" clip-path="url(#clipPath7)" font-family="sans-serif" stroke="none" stroke-miterlimit="1.45" xml:space="preserve">value</text>
      <line y2="-170" fill="none" x1="36" clip-path="url(#clipPath7)" x2="134" y1="-170"/>
      <rect x="316" y="-238" clip-path="url(#clipPath2)" fill="rgb(255,204,0)" width="128" height="87" stroke="none"/>
      <rect x="315" y="-239" clip-path="url(#clipPath2)" fill="yellow" width="1" height="89" stroke="none"/>
      <rect x="316" y="-239" clip-path="url(#clipPath2)" fill="yellow" width="128" height="1" stroke="none"/>
      <rect x="316" y="-151" clip-path="url(#clipPath2)" fill="rgb(178,142,0)" width="129" height="1" stroke="none"/>
      <rect x="444" y="-239" clip-path="url(#clipPath2)" fill="rgb(178,142,0)" width="1" height="88" stroke="none"/>
    </g>
    <g font-size="13px" stroke-linecap="butt" transform="matrix(1,0,0,1,-20,747)" text-rendering="geometricPrecision" font-family="sans-serif" shape-rendering="geometricPrecision" font-weight="bold" stroke-miterlimit="1.45">
      <text x="357.6658" xml:space="preserve" y="-221.4316" clip-path="url(#clipPath8)" stroke="none">LValue</text>
    </g>
    <g text-rendering="geometricPrecision" shape-rendering="geometricPrecision" transform="matrix(1,0,0,1,-20,747)">
      <line y2="-213" fill="none" x1="316" clip-path="url(#clipPath8)" x2="444" y1="-213"/>
      <text stroke-linecap="butt" x="320" y="-197.0879" clip-path="url(#clipPath8)" font-family="sans-serif" stroke="none" stroke-miterlimit="1.45" xml:space="preserve">type</text>
      <line y2="-189" fill="none" x1="316" clip-path="url(#clipPath8)" x2="444" y1="-189"/>
      <text stroke-linecap="butt" x="320" y="-172.9551" clip-path="url(#clipPath8)" font-family="sans-serif" stroke="none" stroke-miterlimit="1.45" xml:space="preserve">lvalue_ir</text>
      <text stroke-linecap="butt" x="320" y="-158.8223" clip-path="url(#clipPath8)" font-family="sans-serif" stroke="none" stroke-miterlimit="1.45" xml:space="preserve">generate_lvalue_code</text>
      <rect x="486" y="-238" clip-path="url(#clipPath2)" fill="rgb(255,204,0)" width="167" height="87" stroke="none"/>
      <rect x="485" y="-239" clip-path="url(#clipPath2)" fill="yellow" width="1" height="89" stroke="none"/>
      <rect x="486" y="-239" clip-path="url(#clipPath2)" fill="yellow" width="167" height="1" stroke="none"/>
      <rect x="486" y="-151" clip-path="url(#clipPath2)" fill="rgb(178,142,0)" width="168" height="1" stroke="none"/>
      <rect x="653" y="-239" clip-path="url(#clipPath2)" fill="rgb(178,142,0)" width="1" height="88" stroke="none"/>
    </g>
    <g font-size="13px" stroke-linecap="butt" transform="matrix(1,0,0,1,-20,747)" text-rendering="geometricPrecision" font-family="sans-serif" shape-rendering="geometricPrecision" font-weight="bold" stroke-miterlimit="1.45">
      <text x="494.0613" xml:space="preserve" y="-221.4316" clip-path="url(#clipPath9)" stroke="none">BinaryOperationResult</text>
    </g>
    <g text-rendering="geometricPrecision" shape-rendering="geometricPrecision" transform="matrix(1,0,0,1,-20,747)">
      <line y2="-213" fill="none" x1="486" clip-path="url(#clipPath9)" x2="653" y1="-213"/>
      <text stroke-linecap="butt" x="490" y="-197.0879" clip-path="url(#clipPath9)" font-family="sans-serif" stroke="none" stroke-miterlimit="1.45" xml:space="preserve">temp_register_id</text>
      <text stroke-linecap="butt" x="490" y="-182.9551" clip-path="url(#clipPath9)" font-family="sans-serif" stroke="none" stroke-miterlimit="1.45" xml:space="preserve">operator_id</text>
      <text stroke-linecap="butt" x="490" y="-168.8223" clip-path="url(#clipPath9)" font-family="sans-serif" stroke="none" stroke-miterlimit="1.45" xml:space="preserve">lhs</text>
      <text stroke-linecap="butt" x="490" y="-154.6895" clip-path="url(#clipPath9)" font-family="sans-serif" stroke="none" stroke-miterlimit="1.45" xml:space="preserve">rhs</text>
      <line y2="-147" fill="none" x1="486" clip-path="url(#clipPath9)" x2="653" y1="-147"/>
      <rect x="197" y="-76" clip-path="url(#clipPath2)" fill="rgb(255,204,0)" width="160" height="64" stroke="none"/>
      <rect x="196" y="-77" clip-path="url(#clipPath2)" fill="yellow" width="1" height="66" stroke="none"/>
      <rect x="197" y="-77" clip-path="url(#clipPath2)" fill="yellow" width="160" height="1" stroke="none"/>
      <rect x="197" y="-12" clip-path="url(#clipPath2)" fill="rgb(178,142,0)" width="161" height="1" stroke="none"/>
      <rect x="357" y="-77" clip-path="url(#clipPath2)" fill="rgb(178,142,0)" width="1" height="65" stroke="none"/>
    </g>
    <g font-size="13px" stroke-linecap="butt" transform="matrix(1,0,0,1,-20,747)" text-rendering="geometricPrecision" font-family="sans-serif" shape-rendering="geometricPrecision" font-weight="bold" stroke-miterlimit="1.45">
      <text x="216.6037" xml:space="preserve" y="-60.156" clip-path="url(#clipPath10)" stroke="none">VariableReference</text>
    </g>
    <g text-rendering="geometricPrecision" shape-rendering="geometricPrecision" transform="matrix(1,0,0,1,-20,747)">
      <line y2="-52" fill="none" x1="197" clip-path="url(#clipPath10)" x2="357" y1="-52"/>
      <text stroke-linecap="butt" x="201.0476" y="-35.8122" clip-path="url(#clipPath10)" font-family="sans-serif" stroke="none" stroke-miterlimit="1.45" xml:space="preserve">variable</text>
      <text stroke-linecap="butt" x="201.0476" y="-21.6794" clip-path="url(#clipPath10)" font-family="sans-serif" stroke="none" stroke-miterlimit="1.45" xml:space="preserve">temp_register_id</text>
      <line y2="-14" fill="none" x1="197" clip-path="url(#clipPath10)" x2="357" y1="-14"/>
      <text stroke-linecap="butt" x="201.0476" y="2.4534" clip-path="url(#clipPath10)" font-family="sans-serif" stroke="none" stroke-miterlimit="1.45" xml:space="preserve"> </text>
      <rect x="399" y="-88" clip-path="url(#clipPath2)" fill="rgb(255,204,0)" width="167" height="87" stroke="none"/>
      <rect x="398" y="-89" clip-path="url(#clipPath2)" fill="yellow" width="1" height="89" stroke="none"/>
      <rect x="399" y="-89" clip-path="url(#clipPath2)" fill="yellow" width="167" height="1" stroke="none"/>
      <rect x="399" y="-1" clip-path="url(#clipPath2)" fill="rgb(178,142,0)" width="168" height="1" stroke="none"/>
      <rect x="566" y="-89" clip-path="url(#clipPath2)" fill="rgb(178,142,0)" width="1" height="88" stroke="none"/>
    </g>
    <g font-size="13px" stroke-linecap="butt" transform="matrix(1,0,0,1,-20,747)" text-rendering="geometricPrecision" font-family="sans-serif" shape-rendering="geometricPrecision" font-weight="bold" stroke-miterlimit="1.45">
      <text x="404.5731" xml:space="preserve" y="-71.4316" clip-path="url(#clipPath11)" stroke="none">ArrayElementReference</text>
    </g>
    <g text-rendering="geometricPrecision" shape-rendering="geometricPrecision" transform="matrix(1,0,0,1,-20,747)">
      <line y2="-63" fill="none" x1="399" clip-path="url(#clipPath11)" x2="566" y1="-63"/>
      <text stroke-linecap="butt" x="403.3175" y="-47.0879" clip-path="url(#clipPath11)" font-family="sans-serif" stroke="none" stroke-miterlimit="1.45" xml:space="preserve">array</text>
      <text stroke-linecap="butt" x="403.3175" y="-32.9551" clip-path="url(#clipPath11)" font-family="sans-serif" stroke="none" stroke-miterlimit="1.45" xml:space="preserve">index</text>
      <text stroke-linecap="butt" x="403.3175" y="-18.8223" clip-path="url(#clipPath11)" font-family="sans-serif" stroke="none" stroke-miterlimit="1.45" xml:space="preserve">rvalue_register_id</text>
      <text stroke-linecap="butt" x="403.3175" y="-4.6895" clip-path="url(#clipPath11)" font-family="sans-serif" stroke="none" stroke-miterlimit="1.45" xml:space="preserve">lvalue_register_id</text>
      <line y2="2" fill="none" x1="399" clip-path="url(#clipPath11)" x2="566" y1="2"/>
      <text stroke-linecap="butt" x="403.3175" y="19.4434" clip-path="url(#clipPath11)" font-family="sans-serif" stroke="none" stroke-miterlimit="1.45" xml:space="preserve"> </text>
      <rect x="612" y="-593" clip-path="url(#clipPath2)" fill="rgb(255,204,0)" width="98" height="55" stroke="none"/>
      <rect x="611" y="-594" clip-path="url(#clipPath2)" fill="yellow" width="1" height="57" stroke="none"/>
      <rect x="612" y="-594" clip-path="url(#clipPath2)" fill="yellow" width="98" height="1" stroke="none"/>
      <rect x="612" y="-538" clip-path="url(#clipPath2)" fill="rgb(178,142,0)" width="99" height="1" stroke="none"/>
      <rect x="710" y="-594" clip-path="url(#clipPath2)" fill="rgb(178,142,0)" width="1" height="56" stroke="none"/>
    </g>
    <g font-size="13px" stroke-linecap="butt" transform="matrix(1,0,0,1,-20,747)" text-rendering="geometricPrecision" font-family="sans-serif" shape-rendering="geometricPrecision" font-weight="bold" stroke-miterlimit="1.45">
      <text x="628.2213" xml:space="preserve" y="-576.4832" clip-path="url(#clipPath12)" stroke="none">Statement</text>
    </g>
    <g text-rendering="geometricPrecision" shape-rendering="geometricPrecision" transform="matrix(1,0,0,1,-20,747)">
      <line y2="-568" fill="none" x1="612" clip-path="url(#clipPath12)" x2="710" y1="-568"/>
      <line y2="-558" fill="none" x1="612" clip-path="url(#clipPath12)" x2="710" y1="-558"/>
      <text stroke-linecap="butt" x="616.848" y="-542.1395" clip-path="url(#clipPath12)" font-family="sans-serif" stroke="none" stroke-miterlimit="1.45" xml:space="preserve">generate_code</text>
      <rect x="351" y="-407" clip-path="url(#clipPath2)" fill="rgb(255,204,0)" width="76" height="64" stroke="none"/>
      <rect x="350" y="-408" clip-path="url(#clipPath2)" fill="yellow" width="1" height="66" stroke="none"/>
      <rect x="351" y="-408" clip-path="url(#clipPath2)" fill="yellow" width="76" height="1" stroke="none"/>
      <rect x="351" y="-343" clip-path="url(#clipPath2)" fill="rgb(178,142,0)" width="77" height="1" stroke="none"/>
      <rect x="427" y="-408" clip-path="url(#clipPath2)" fill="rgb(178,142,0)" width="1" height="65" stroke="none"/>
    </g>
    <g font-size="13px" stroke-linecap="butt" transform="matrix(1,0,0,1,-20,747)" text-rendering="geometricPrecision" font-family="sans-serif" shape-rendering="geometricPrecision" font-weight="bold" stroke-miterlimit="1.45">
      <text x="367.6202" xml:space="preserve" y="-391.1559" clip-path="url(#clipPath13)" stroke="none">Assign</text>
    </g>
    <g text-rendering="geometricPrecision" shape-rendering="geometricPrecision" transform="matrix(1,0,0,1,-20,747)">
      <line y2="-383" fill="none" x1="351" clip-path="url(#clipPath13)" x2="428" y1="-383"/>
      <text stroke-linecap="butt" x="355.9981" y="-366.8122" clip-path="url(#clipPath13)" font-family="sans-serif" stroke="none" stroke-miterlimit="1.45" xml:space="preserve">lhs</text>
      <text stroke-linecap="butt" x="355.9981" y="-352.6794" clip-path="url(#clipPath13)" font-family="sans-serif" stroke="none" stroke-miterlimit="1.45" xml:space="preserve">rhs</text>
      <line y2="-345" fill="none" x1="351" clip-path="url(#clipPath13)" x2="428" y1="-345"/>
      <rect x="470" y="-412" clip-path="url(#clipPath2)" fill="rgb(255,204,0)" width="98" height="74" stroke="none"/>
      <rect x="469" y="-413" clip-path="url(#clipPath2)" fill="yellow" width="1" height="76" stroke="none"/>
      <rect x="470" y="-413" clip-path="url(#clipPath2)" fill="yellow" width="98" height="1" stroke="none"/>
      <rect x="470" y="-338" clip-path="url(#clipPath2)" fill="rgb(178,142,0)" width="99" height="1" stroke="none"/>
      <rect x="568" y="-413" clip-path="url(#clipPath2)" fill="rgb(178,142,0)" width="1" height="75" stroke="none"/>
    </g>
    <g font-size="13px" stroke-linecap="butt" transform="matrix(1,0,0,1,-20,747)" text-rendering="geometricPrecision" font-family="sans-serif" shape-rendering="geometricPrecision" font-weight="bold" stroke-miterlimit="1.45">
      <text x="483.4688" xml:space="preserve" y="-396.0523" clip-path="url(#clipPath14)" stroke="none">Compound</text>
    </g>
    <g text-rendering="geometricPrecision" shape-rendering="geometricPrecision" transform="matrix(1,0,0,1,-20,747)">
      <line y2="-388" fill="none" x1="470" clip-path="url(#clipPath14)" x2="568" y1="-388"/>
      <text stroke-linecap="butt" x="474.8568" y="-371.7086" clip-path="url(#clipPath14)" font-family="sans-serif" stroke="none" stroke-miterlimit="1.45" xml:space="preserve">child_count</text>
      <text stroke-linecap="butt" x="474.8568" y="-357.5758" clip-path="url(#clipPath14)" font-family="sans-serif" stroke="none" stroke-miterlimit="1.45" xml:space="preserve">children</text>
      <text stroke-linecap="butt" x="474.8568" y="-343.443" clip-path="url(#clipPath14)" font-family="sans-serif" stroke="none" stroke-miterlimit="1.45" xml:space="preserve">namespace_id</text>
      <line y2="-335" fill="none" x1="470" clip-path="url(#clipPath14)" x2="568" y1="-335"/>
      <rect x="610" y="-407" clip-path="url(#clipPath2)" fill="rgb(255,204,0)" width="85" height="64" stroke="none"/>
      <rect x="609" y="-408" clip-path="url(#clipPath2)" fill="yellow" width="1" height="66" stroke="none"/>
      <rect x="610" y="-408" clip-path="url(#clipPath2)" fill="yellow" width="85" height="1" stroke="none"/>
      <rect x="610" y="-343" clip-path="url(#clipPath2)" fill="rgb(178,142,0)" width="86" height="1" stroke="none"/>
      <rect x="695" y="-408" clip-path="url(#clipPath2)" fill="rgb(178,142,0)" width="1" height="65" stroke="none"/>
    </g>
    <g font-size="13px" stroke-linecap="butt" transform="matrix(1,0,0,1,-20,747)" text-rendering="geometricPrecision" font-family="sans-serif" shape-rendering="geometricPrecision" font-weight="bold" stroke-miterlimit="1.45">
      <text x="628.3939" xml:space="preserve" y="-391.1559" clip-path="url(#clipPath15)" stroke="none">Declare</text>
    </g>
    <g text-rendering="geometricPrecision" shape-rendering="geometricPrecision" transform="matrix(1,0,0,1,-20,747)">
      <line y2="-383" fill="none" x1="610" clip-path="url(#clipPath15)" x2="696" y1="-383"/>
      <text stroke-linecap="butt" x="614.8571" y="-366.8122" clip-path="url(#clipPath15)" font-family="sans-serif" stroke="none" stroke-miterlimit="1.45" xml:space="preserve">variable</text>
      <text stroke-linecap="butt" x="614.8571" y="-352.6794" clip-path="url(#clipPath15)" font-family="sans-serif" stroke="none" stroke-miterlimit="1.45" xml:space="preserve">initial</text>
      <line y2="-345" fill="none" x1="610" clip-path="url(#clipPath15)" x2="696" y1="-345"/>
      <rect x="738" y="-412" clip-path="url(#clipPath2)" fill="rgb(255,204,0)" width="85" height="74" stroke="none"/>
      <rect x="737" y="-413" clip-path="url(#clipPath2)" fill="yellow" width="1" height="76" stroke="none"/>
      <rect x="738" y="-413" clip-path="url(#clipPath2)" fill="yellow" width="85" height="1" stroke="none"/>
      <rect x="738" y="-338" clip-path="url(#clipPath2)" fill="rgb(178,142,0)" width="86" height="1" stroke="none"/>
      <rect x="823" y="-413" clip-path="url(#clipPath2)" fill="rgb(178,142,0)" width="1" height="75" stroke="none"/>
    </g>
    <g font-size="13px" stroke-linecap="butt" transform="matrix(1,0,0,1,-20,747)" text-rendering="geometricPrecision" font-family="sans-serif" shape-rendering="geometricPrecision" font-weight="bold" stroke-miterlimit="1.45">
      <text x="775.9805" xml:space="preserve" y="-396.0523" clip-path="url(#clipPath16)" stroke="none">If</text>
    </g>
    <g text-rendering="geometricPrecision" shape-rendering="geometricPrecision" transform="matrix(1,0,0,1,-20,747)">
      <line y2="-388" fill="none" x1="738" clip-path="url(#clipPath16)" x2="823" y1="-388"/>
      <text stroke-linecap="butt" x="742.1726" y="-371.7086" clip-path="url(#clipPath16)" font-family="sans-serif" stroke="none" stroke-miterlimit="1.45" xml:space="preserve">condition</text>
      <text stroke-linecap="butt" x="742.1726" y="-357.5758" clip-path="url(#clipPath16)" font-family="sans-serif" stroke="none" stroke-miterlimit="1.45" xml:space="preserve">statement</text>
      <text stroke-linecap="butt" x="742.1726" y="-343.443" clip-path="url(#clipPath16)" font-family="sans-serif" stroke="none" stroke-miterlimit="1.45" xml:space="preserve">else_statement</text>
      <line y2="-335" fill="none" x1="738" clip-path="url(#clipPath16)" x2="823" y1="-335"/>
      <rect x="865" y="-407" clip-path="url(#clipPath2)" fill="rgb(255,204,0)" width="85" height="64" stroke="none"/>
      <rect x="864" y="-408" clip-path="url(#clipPath2)" fill="yellow" width="1" height="66" stroke="none"/>
      <rect x="865" y="-408" clip-path="url(#clipPath2)" fill="yellow" width="85" height="1" stroke="none"/>
      <rect x="865" y="-343" clip-path="url(#clipPath2)" fill="rgb(178,142,0)" width="86" height="1" stroke="none"/>
      <rect x="950" y="-408" clip-path="url(#clipPath2)" fill="rgb(178,142,0)" width="1" height="65" stroke="none"/>
    </g>
    <g font-size="13px" stroke-linecap="butt" transform="matrix(1,0,0,1,-20,747)" text-rendering="geometricPrecision" font-family="sans-serif" shape-rendering="geometricPrecision" font-weight="bold" stroke-miterlimit="1.45">
      <text x="889.9659" xml:space="preserve" y="-391.1559" clip-path="url(#clipPath17)" stroke="none">While</text>
    </g>
    <g text-rendering="geometricPrecision" shape-rendering="geometricPrecision" transform="matrix(1,0,0,1,-20,747)">
      <line y2="-383" fill="none" x1="865" clip-path="url(#clipPath17)" x2="950" y1="-383"/>
      <text stroke-linecap="butt" x="869.4881" y="-366.8122" clip-path="url(#clipPath17)" font-family="sans-serif" stroke="none" stroke-miterlimit="1.45" xml:space="preserve">condition</text>
      <text stroke-linecap="butt" x="869.4881" y="-352.6794" clip-path="url(#clipPath17)" font-family="sans-serif" stroke="none" stroke-miterlimit="1.45" xml:space="preserve">statement</text>
      <line y2="-345" fill="none" x1="865" clip-path="url(#clipPath17)" x2="950" y1="-345"/>
      <rect x="992" y="-407" clip-path="url(#clipPath2)" fill="rgb(255,204,0)" width="85" height="64" stroke="none"/>
      <rect x="991" y="-408" clip-path="url(#clipPath2)" fill="yellow" width="1" height="66" stroke="none"/>
      <rect x="992" y="-408" clip-path="url(#clipPath2)" fill="yellow" width="85" height="1" stroke="none"/>
      <rect x="992" y="-343" clip-path="url(#clipPath2)" fill="rgb(178,142,0)" width="86" height="1" stroke="none"/>
      <rect x="1077" y="-408" clip-path="url(#clipPath2)" fill="rgb(178,142,0)" width="1" height="65" stroke="none"/>
    </g>
    <g font-size="13px" stroke-linecap="butt" transform="matrix(1,0,0,1,-20,747)" text-rendering="geometricPrecision" font-family="sans-serif" shape-rendering="geometricPrecision" font-weight="bold" stroke-miterlimit="1.45">
      <text x="1019.5031" xml:space="preserve" y="-391.1559" clip-path="url(#clipPath18)" stroke="none">Print</text>
    </g>
    <g text-rendering="geometricPrecision" shape-rendering="geometricPrecision" transform="matrix(1,0,0,1,-20,747)">
      <line y2="-383" fill="none" x1="992" clip-path="url(#clipPath18)" x2="1078" y1="-383"/>
      <text stroke-linecap="butt" x="996.8035" y="-366.8122" clip-path="url(#clipPath18)" font-family="sans-serif" stroke="none" stroke-miterlimit="1.45" xml:space="preserve">expression</text>
      <line y2="-359" fill="none" x1="992" clip-path="url(#clipPath18)" x2="1078" y1="-359"/>
      <path fill="none" stroke-miterlimit="1.45" d="M242.1996 -578.8659 L242.1996 -609.3361 L427.0238 -609.3361 L427.0238 -640.007" clip-path="url(#clipPath2)" stroke-linecap="butt"/>
    </g>
    <g stroke-linecap="butt" transform="matrix(1,0,0,1,-20,747)" fill="white" text-rendering="geometricPrecision" shape-rendering="geometricPrecision" stroke="white" stroke-miterlimit="1.45">
      <path d="M427.0238 -655.007 L421.0238 -639.007 L433.0238 -639.007 Z" stroke="none" clip-path="url(#clipPath2)"/>
      <path fill="none" d="M427.0238 -655.007 L421.0238 -639.007 L433.0238 -639.007 Z" clip-path="url(#clipPath2)" stroke="black"/>
      <path fill="none" d="M242.1996 -420.0322 L242.1996 -536.804" clip-path="url(#clipPath2)" stroke="black"/>
      <path d="M242.1996 -551.804 L236.1996 -535.804 L248.1996 -535.804 Z" clip-path="url(#clipPath2)" stroke="none"/>
      <path fill="none" d="M242.1996 -551.804 L236.1996 -535.804 L248.1996 -535.804 Z" clip-path="url(#clipPath2)" stroke="black"/>
      <path fill="none" d="M225 -219.5272 L225 -315.9728" clip-path="url(#clipPath2)" stroke="black"/>
      <path d="M225 -330.9728 L219 -314.9728 L231 -314.9728 Z" clip-path="url(#clipPath2)" stroke="none"/>
      <path fill="none" d="M225 -330.9728 L219 -314.9728 L231 -314.9728 Z" clip-path="url(#clipPath2)" stroke="black"/>
      <path fill="none" d="M85 -219.5298 L85 -250 L190.6008 -250 L190.6008 -315.9604" clip-path="url(#clipPath2)" stroke="black"/>
      <path d="M190.6008 -330.9604 L184.6008 -314.9604 L196.6008 -314.9604 Z" clip-path="url(#clipPath2)" stroke="none"/>
      <path fill="none" d="M190.6008 -330.9604 L184.6008 -314.9604 L196.6008 -314.9604 Z" clip-path="url(#clipPath2)" stroke="black"/>
      <path fill="none" d="M380 -239.0298 L380 -269.5 L259.3992 -269.5 L259.3992 -315.97" clip-path="url(#clipPath2)" stroke="black"/>
      <path d="M259.3992 -330.97 L253.3992 -314.97 L265.3992 -314.97 Z" clip-path="url(#clipPath2)" stroke="none"/>
      <path fill="none" d="M259.3992 -330.97 L253.3992 -314.97 L265.3992 -314.97 Z" clip-path="url(#clipPath2)" stroke="black"/>
      <path fill="none" d="M569.5 -239.03 L569.5 -300.5 L293.7984 -300.5 L293.7984 -315.9702" clip-path="url(#clipPath2)" stroke="black"/>
      <path d="M293.7984 -330.9702 L287.7984 -314.9702 L299.7984 -314.9702 Z" clip-path="url(#clipPath2)" stroke="none"/>
      <path fill="none" d="M293.7984 -330.9702 L287.7984 -314.9702 L299.7984 -314.9702 Z" clip-path="url(#clipPath2)" stroke="black"/>
      <path fill="none" d="M277.1825 -77.7651 L277.1825 -119.5 L347.5 -119.5 L347.5 -134.9702" clip-path="url(#clipPath2)" stroke="black"/>
      <path d="M347.5 -149.9702 L341.5 -133.9702 L353.5 -133.9702 Z" clip-path="url(#clipPath2)" stroke="none"/>
      <path fill="none" d="M347.5 -149.9702 L341.5 -133.9702 L353.5 -133.9702 Z" clip-path="url(#clipPath2)" stroke="black"/>
      <path fill="none" d="M482.8175 -89.0298 L482.8175 -119.5 L412.5 -119.5 L412.5 -134.9702" clip-path="url(#clipPath2)" stroke="black"/>
      <path d="M412.5 -149.9702 L406.5 -133.9702 L418.5 -133.9702 Z" clip-path="url(#clipPath2)" stroke="none"/>
      <path fill="none" d="M412.5 -149.9702 L406.5 -133.9702 L418.5 -133.9702 Z" clip-path="url(#clipPath2)" stroke="black"/>
      <path fill="none" d="M661.848 -594.0814 L661.848 -624.5516 L477.0238 -624.5516 L477.0238 -640.0218" clip-path="url(#clipPath2)" stroke="black"/>
      <path d="M477.0238 -655.0218 L471.0238 -639.0218 L483.0238 -639.0218 Z" clip-path="url(#clipPath2)" stroke="none"/>
      <path fill="none" d="M477.0238 -655.0218 L471.0238 -639.0218 L483.0238 -639.0218 Z" clip-path="url(#clipPath2)" stroke="black"/>
      <path fill="none" d="M390.4274 -408.7567 L390.4274 -475.1207 L620.1813 -475.1207 L620.1813 -521.5906" clip-path="url(#clipPath2)" stroke="black"/>
      <path d="M620.1813 -536.5906 L614.1813 -520.5906 L626.1813 -520.5906 Z" clip-path="url(#clipPath2)" stroke="none"/>
      <path fill="none" d="M620.1813 -536.5906 L614.1813 -520.5906 L626.1813 -520.5906 Z" clip-path="url(#clipPath2)" stroke="black"/>
      <path fill="none" d="M519.8568 -413.6505 L519.8568 -444.1207 L636.848 -444.1207 L636.848 -521.5755" clip-path="url(#clipPath2)" stroke="black"/>
      <path d="M636.848 -536.5755 L630.848 -520.5755 L642.848 -520.5755 Z" clip-path="url(#clipPath2)" stroke="none"/>
      <path fill="none" d="M636.848 -536.5755 L630.848 -520.5755 L642.848 -520.5755 Z" clip-path="url(#clipPath2)" stroke="black"/>
      <path fill="none" d="M653.5147 -408.7556 L653.5147 -521.5895" clip-path="url(#clipPath2)" stroke="black"/>
      <path d="M653.5147 -536.5895 L647.5147 -520.5895 L659.5147 -520.5895 Z" clip-path="url(#clipPath2)" stroke="none"/>
      <path fill="none" d="M653.5147 -536.5895 L647.5147 -520.5895 L659.5147 -520.5895 Z" clip-path="url(#clipPath2)" stroke="black"/>
      <path fill="none" d="M780.8301 -413.6505 L780.8301 -444.1207 L670.1813 -444.1207 L670.1813 -521.5755" clip-path="url(#clipPath2)" stroke="black"/>
      <path d="M670.1813 -536.5755 L664.1813 -520.5755 L676.1813 -520.5755 Z" clip-path="url(#clipPath2)" stroke="none"/>
      <path fill="none" d="M670.1813 -536.5755 L664.1813 -520.5755 L676.1813 -520.5755 Z" clip-path="url(#clipPath2)" stroke="black"/>
      <path fill="none" d="M908.1456 -408.7567 L908.1456 -475.1207 L686.848 -475.1207 L686.848 -521.5906" clip-path="url(#clipPath2)" stroke="black"/>
      <path d="M686.848 -536.5906 L680.848 -520.5906 L692.848 -520.5906 Z" clip-path="url(#clipPath2)" stroke="none"/>
      <path fill="none" d="M686.848 -536.5906 L680.848 -520.5906 L692.848 -520.5906 Z" clip-path="url(#clipPath2)" stroke="black"/>
      <path fill="none" d="M1035.4611 -408.7719 L1035.4611 -506.1207 L703.5147 -506.1207 L703.5147 -521.5909" clip-path="url(#clipPath2)" stroke="black"/>
      <path d="M703.5147 -536.5909 L697.5147 -520.5909 L709.5147 -520.5909 Z" clip-path="url(#clipPath2)" stroke="none"/>
      <path fill="none" d="M703.5147 -536.5909 L697.5147 -520.5909 L709.5147 -520.5909 Z" clip-path="url(#clipPath2)" stroke="black"/>
    </g>
  </g>
</svg>
